<?xml version="1.0" encoding="UTF-8" standalone="no"?><!DOCTYPE svg PUBLIC "-//W3C//DTD SVG 1.1//EN" "http://www.w3.org/Graphics/SVG/1.1/DTD/svg11.dtd"><svg width="100%" height="100%" viewBox="0 0 954 550" version="1.1" xmlns="http://www.w3.org/2000/svg" xmlns:xlink="http://www.w3.org/1999/xlink" xml:space="preserve" xmlns:serif="http://www.serif.com/" style="fill-rule:evenodd;clip-rule:evenodd;stroke-miterlimit:10;"><path d="M236.74,360.11c-57.68,-19.93 -123.63,-36.8 -177.52,-8.16c-6.83,3.63 -13.56,8.2 -17.24,15c-9.72,17.89 5.73,41.09 -1.8,60c-7.53,18.91 -35.87,28.43 -33.55,48.63c0.61,5.28 3.47,10.06 6.84,14.18c21.11,25.79 59.81,28.4 92.52,22c32.71,-6.4 64.7,-19.67 98,-18c32,1.65 61.44,17 90.76,29.92c49.43,21.84 107.16,37.51 156.55,15.56c22.63,-10.06 41.34,-27.19 63,-39.15c29.185,-15.967 62.748,-22.125 95.7,-17.56c22,3.1 43,10.9 64.53,16.28c48.9,12.21 99.94,11.81 150.33,11.33c9.38,-0.09 18.91,-0.2 27.9,-2.88c13.31,-4 24.29,-13.21 34.86,-22.22c13.89,-11.83 28.52,-24.83 33,-42.52c5.29,-21 -5.66,-43.32 -21.9,-57.59c-16.24,-14.27 -37,-22.07 -57.26,-29.59c-5,-1.84 -10.34,-3.71 -15.46,-2.32c-3.36,0.92 -6.19,3.16 -8.7,5.57c-14.38,13.84 -26.53,37.25 -46.14,33.49c-7,-1.34 -12.73,-6.21 -18.27,-10.71c-29.58,-24 -69.37,-42.53 -105.07,-29.27c-26.11,9.7 -44.54,34.61 -71,43.4c-18.82,6.26 -39.27,3.55 -59.07,4.77c-28.8,1.76 -56.83,11.94 -85.67,11.32c-73.54,-1.58 -134.81,-71.9 -208.05,-65.2c-5.74,0.52 -12,1.84 -15.52,6.38" style="fill:#9dc5bf;fill-opacity:0.5;fill-rule:nonzero;"/><path d="M144,293.22c0,0 -61.11,36.89 51.58,93.71c0,0 24.83,-46.1 -2.62,-83.69c-10.972,-15.086 -31.724,-19.634 -48,-10.52l-0.96,0.5Z" style="fill:#9dc5bf;fill-rule:nonzero;"/><path d="M144.73,292.45c0,0 52.32,40 50.86,94.45" style="fill:none;stroke:#535461;stroke-width:1px;"/><path d="M917.15,262.49c12.38,45.27 -40.43,174.24 -40.43,174.24c0,0 -111.12,-84.13 -123.51,-129.4c-2.356,-7.892 -3.553,-16.084 -3.553,-24.32c0,-46.629 38.37,-85 85,-85c38.907,0 73.086,26.714 82.483,64.47l0.01,0.01Z" style="fill:#9dc5bf;fill-rule:nonzero;"/><path d="M917.15,262.49c12.38,45.27 -40.43,174.24 -40.43,174.24c0,0 -111.12,-84.13 -123.51,-129.4c-2.356,-7.892 -3.553,-16.084 -3.553,-24.32c0,-46.629 38.37,-85 85,-85c38.907,0 73.086,26.714 82.483,64.47l0.01,0.01Z" style="fill-opacity:0.1;fill-rule:nonzero;"/><path d="M813.21,203.2c0,0 69.17,104.42 64,233.78" style="fill:none;stroke:#535461;stroke-width:1px;"/><path d="M934.8,345.23c0,0 -62.72,-34.12 -54.78,91.83c0,0 52.32,-1.87 70.89,-44.55c7.479,-17.098 0.911,-37.314 -15.19,-46.75l-0.92,-0.53Z" style="fill:#9dc5bf;fill-rule:nonzero;"/><path d="M935.83,345.45c0,0 -8.1,65.38 -55.81,91.61" style="fill:none;stroke:#535461;stroke-width:1px;"/><path d="M16.56,331.19c0,0 -61.14,36.88 51.56,93.67c0,0 24.83,-46.1 -2.62,-83.69c-10.972,-15.086 -31.724,-19.634 -48,-10.52l-0.94,0.54Z" style="fill:#9dc5bf;fill-rule:nonzero;"/><path d="M17.26,330.42c0,0 52.32,40 50.86,94.45" style="fill:none;stroke:#535461;stroke-width:1px;"/><path d="M779.43,379.2l-64.25,0c1.478,-2.973 2.245,-6.25 2.24,-9.57l0,-292.56c0,-11.8 -9.71,-21.51 -21.51,-21.51l-497.33,0c-11.8,0 -21.51,9.71 -21.51,21.51l0,292.57c-0.005,3.32 0.762,6.597 2.24,9.57l-66.52,0c0,0 0,0 0,0c-3.122,0 -5.69,2.569 -5.69,5.69c0,0.01 0,0.02 0,0.03l0,4.59c0,17.456 14.364,31.82 31.82,31.82l614.38,0c17.456,0 31.82,-14.364 31.82,-31.82l0,-4.59c0,-0.013 0,-0.027 0,-0.04c0,-3.121 -2.568,-5.69 -5.69,-5.69c0,0 0,0 0,0Zm-395.89,18.2l-5.54,-6.25l136.78,0l-6.1,6.26l-125.14,-0.01Z" style="fill:url(#_Linear1);fill-rule:nonzero;"/><path d="M711.28,82.96c0,-12.838 -10.422,-23.26 -23.26,-23.26l-481.6,0c-12.838,0 -23.26,10.422 -23.26,23.26l0,281.47c0,12.838 10.422,23.26 23.26,23.26l481.6,0c12.838,0 23.26,-10.422 23.26,-23.26l0,-281.47Z" style="fill:#535461;"/><rect x="194.28" y="107.51" width="504.77" height="267.95" style="fill:#fff;"/><circle cx="446.67" cy="84.16" r="4.45" style="fill:#fff;"/><path d="M524.6,376.01l-17.34,17.79l-122.26,0l-15.67,-17.79l-248.99,0c-3.05,0 -5.56,2.51 -5.56,5.56l0,4.48c0,17.061 14.039,31.1 31.1,31.1l600.46,0c17.061,0 31.1,-14.039 31.1,-31.1l0,-4.48c0,-3.05 -2.51,-5.56 -5.56,-5.56l-247.28,0Z" style="fill:#535461;fill-rule:nonzero;"/><rect x="292.12" y="120.857" width="305" height="15.293" style="fill:#9dc5bf;fill-opacity:0.5;"/><rect x="292.12" y="323.41" width="305" height="35.195" style="fill:#9dc5bf;fill-opacity:0.5;"/><rect x="292.12" y="253.27" width="89.953" height="60" style="fill:#9dc5bf;fill-opacity:0.7;"/><rect x="399.62" y="253.83" width="90" height="60" style="fill:#9dc5bf;fill-opacity:0.5;"/><rect x="507.167" y="253.27" width="89.953" height="60" style="fill:#9dc5bf;fill-opacity:0.8;"/><rect x="292.12" y="145.713" width="305" height="95.772" style="fill:#9dc5bf;"/><path d="M867.31,385.75c-4.1,-1.35 -10.18,-2.91 -15,-2.36c-4.59,-1.67 -15.38,-6 -22.75,-12.52c0.213,-6.411 0.049,-12.828 -0.49,-19.22c-3.77,-42.87 4.71,-71.13 4.71,-71.13c0,0 6.66,-21.56 5.93,-39.45c0.43,0.81 0.67,1.29 0.67,1.29c0.58,-15.43 5.84,-31.4 9.78,-41.35c0.15,-0.043 0.297,-0.096 0.44,-0.16l4.4,-10.44c0.351,-0.609 0.629,-1.257 0.83,-1.93l0.71,-1.65l-0.21,-0.09c0.07,-0.27 0.14,-0.56 0.21,-0.85c2.81,-11.89 5,-40.09 5,-40.09c7.54,-29.68 -10.36,-48 -10.36,-48l-30.38,-26.14c0.151,0.34 0.252,0.701 0.3,1.07l-0.25,-0.22c-0.43,-1.23 -0.9,-2.7 -1.36,-4.38c1.072,-0.769 2.075,-1.629 3,-2.57c3.454,-3.262 5.83,-7.502 6.81,-12.15c0.589,-3.635 0.74,-7.329 0.45,-11l-0.5,-12.61c-0.023,-2.468 -0.274,-4.928 -0.75,-7.35c-2.29,-10 -12.54,-17 -22.83,-17.46c-3.274,-0.019 -6.546,0.155 -9.8,0.52c-2.661,0.219 -5.332,0.275 -8,0.17c-0.304,0.016 -0.605,-0.064 -0.86,-0.23c-0.231,-0.231 -0.364,-0.543 -0.37,-0.87c-0.106,-1.182 0.277,-2.358 1.06,-3.25c0.402,-0.353 0.872,-0.622 1.38,-0.79l-0.73,0.17c0.36,-0.284 0.766,-0.504 1.2,-0.65c-2.667,0.469 -5.232,1.4 -7.58,2.75c-0.647,0.425 -1.241,0.925 -1.77,1.49c-1.398,1.227 -2.307,2.917 -2.56,4.76c-1.253,-1.058 -2.188,-2.443 -2.7,-4c-0.159,-0.637 -0.159,-1.303 0,-1.94c-0.18,0.22 -0.353,0.447 -0.52,0.68c0,-0.07 0,-0.14 0,-0.21c-1.932,2.375 -3.3,5.159 -4,8.14c-0.543,-0.652 -0.803,-1.495 -0.72,-2.34c-0.15,0.47 -0.29,0.94 -0.42,1.41c-0.045,-0.312 -0.045,-0.628 0,-0.94c-1.177,3.605 -1.709,7.39 -1.57,11.18c0,3.78 1.68,9.67 5.73,11c0.21,0.07 0.42,0.12 0.64,0.17c-2.642,4.104 -4.047,8.884 -4.047,13.765c0,12.359 9.01,23.018 21.197,25.075c0.067,0.46 0.13,0.943 0.19,1.45l0.16,0c0.11,1 0.2,2.1 0.26,3.22c-1.022,1.001 -2.141,1.899 -3.34,2.68c-3.4,2.01 -7.192,3.265 -11.12,3.68c-4.69,0.368 -9.248,1.732 -13.37,4c-4.85,2.71 -10.2,6.66 -11.88,11.46c-2.8,8 -18.22,20.45 -28.56,22l-3.68,-0.21l-0.27,-0.08l0,0.07l-0.9,-0.05l-0.05,0l-0.24,0l0,0.05l-0.93,-0.05c0,0 -0.09,0.43 -0.22,1.19c-5.2,-1.79 -16.25,-6.75 -30.63,-19.8c-16,-14.53 -37.65,-11.67 -46,-9.84c-0.653,0.144 -1.122,0.728 -1.122,1.396c0,0.522 0.285,1.003 0.742,1.254c3.37,1.85 8.59,4.54 11,4.84c0,0 -5,5.23 0.32,8c1.299,0.628 2.847,0.477 4,-0.39c2.58,-1.89 9.75,2.39 20.14,4.62c0,0 29.32,30.34 43.88,35c0.335,0.663 0.706,1.307 1.11,1.93l0.9,-0.07l0,0.07l0.38,0l0.11,1c0,0 22.64,-1.19 30,-9.41c0.521,-0.467 1,-0.979 1.43,-1.53l-7.87,99l0.07,0l-0.07,0.94l5.79,0c0.495,12.176 -0.03,24.372 -1.57,36.46l0,64.54c0,0 -0.3,5.68 11.5,14c12.372,8.613 24.294,17.856 35.72,27.69l1.43,1.24c-2.17,19.75 -6.71,56.56 -10.5,57.93l2.34,0.41c-4,5.07 -15.36,19 -18.82,19.37c-4.24,0.47 -7.07,7.07 0,8.48c14.116,2.443 28.633,1.012 42,-4.14c2.734,-1.079 4.393,-3.907 4,-6.82l-1.37,-10.4c0.259,0.144 0.469,0.364 0.6,0.63c0.94,2.83 0,-3.77 0,-3.77c3.874,-12.451 6.917,-25.146 9.11,-38l14,12.1c0,0 0.28,-0.35 0.77,-1c3.43,7.78 9.55,23.7 8.18,35.36c-1.88,16 16,1.88 14.13,-7.54c-1.52,-7.62 5.28,-39.92 7.93,-52c0.589,-2.689 -0.98,-5.417 -3.6,-6.26Z" style="fill:url(#_Linear2);fill-rule:nonzero;"/><path d="M721,124.42c0,0 -13.34,-2.3 -33.12,-20.24c-15.65,-14.19 -36.76,-11.4 -44.9,-9.61c-0.637,0.138 -1.096,0.706 -1.096,1.359c0,0.508 0.279,0.978 0.726,1.221c3.29,1.8 8.39,4.43 10.78,4.73c0,0 -4.93,5.1 0.31,7.83c1.278,0.627 2.806,0.48 3.94,-0.38c2.52,-1.84 9.52,2.34 19.67,4.51c0,0 39.56,40.94 48.76,34l-5.07,-23.42Z" style="fill:#fec3be;fill-rule:nonzero;"/><path d="M789.11,68.76c0,0 3.68,15.64 0,26.68l16.56,2.3l14.72,-7.36l0,-9.66c0,0 -6.9,-14.72 -5.06,-31.74l-26.22,19.78Z" style="fill:#fec3be;fill-rule:nonzero;"/><path d="M836,407.76c0,0 12,23.46 10.12,39.1c-1.88,15.64 15.64,1.84 13.8,-7.36c-1.49,-7.44 5.15,-39 7.74,-50.74c0.579,-2.615 -0.936,-5.274 -3.48,-6.11c-5.53,-1.82 -14.79,-4.05 -19.44,-0.64c-6.87,5.05 -8.74,25.75 -8.74,25.75Z" style="fill:#8b416f;fill-rule:nonzero;"/><path d="M790.49,433.52c0,0 -15.64,20.24 -19.78,20.7c-4.14,0.46 -6.9,6.9 0,8.28c13.776,2.398 27.947,1.015 41,-4c2.68,-1.045 4.31,-3.809 3.93,-6.66l-2.64,-19.7l-22.51,1.38Z" style="fill:#8b416f;fill-rule:nonzero;"/><path d="M764.73,218.71l-15,2c2.059,17.52 1.998,35.224 -0.18,52.73l0,63c0,0 -0.29,5.55 11.23,13.62c12.08,8.398 23.722,17.41 34.88,27l41.74,36.16c0,0 16.56,-20.24 14.26,-32.2c0,0 -27.6,-8.74 -31.28,-23c-2.11,-8.16 -12.81,-15 -21.57,-19.3c-11.305,-5.49 -17.309,-18.226 -14.35,-30.44c0.512,-2.067 1.302,-4.056 2.35,-5.91c7.36,-12.88 17.94,-41.86 17.94,-41.86l-20.24,-38.58l-19.78,-3.22Z" style="fill:#4d4981;fill-rule:nonzero;"/><path d="M764.73,218.71l-15,2c2.059,17.52 1.998,35.224 -0.18,52.73l0,63c0,0 -0.29,5.55 11.23,13.62c12.08,8.398 23.722,17.41 34.88,27l41.74,36.16c0,0 16.56,-20.24 14.26,-32.2c0,0 -27.6,-8.74 -31.28,-23c-2.11,-8.16 -12.81,-15 -21.57,-19.3c-11.305,-5.49 -17.309,-18.226 -14.35,-30.44c0.512,-2.067 1.302,-4.056 2.35,-5.91c7.36,-12.88 17.94,-41.86 17.94,-41.86l-20.24,-38.58l-19.78,-3.22Z" style="fill-opacity:0.05;fill-rule:nonzero;"/><path d="M786.81,434.93c0,0 27.14,4.6 28.06,7.36c0.92,2.76 0,-3.68 0,-3.68c0,0 15.64,-47.38 12,-89.23c-3.64,-41.85 4.6,-69.46 4.6,-69.46c0,0 9.66,-31.28 4.14,-49.22c-5.52,-17.94 -63.48,-10.12 -63.48,-10.12c0,0 20.24,47.38 19.78,69.92c0,0 2.3,68.08 6.44,75.9c-0.04,-0.04 -6.48,66.66 -11.54,68.53Z" style="fill:#4d4981;fill-rule:nonzero;"/><path d="M790,80.72c0,0 2.76,17 30.36,9.66l-18.36,139.83c0,0 -53.36,1.84 -52.9,-4.6l11,-84.63l29.9,-60.26Z" style="fill:#fff;fill-rule:nonzero;"/><path d="M790.72,79.8c-3.593,3.538 -8.277,5.761 -13.29,6.31c-4.579,0.351 -9.032,1.674 -13.06,3.88c-4.73,2.65 -10,6.5 -11.6,11.19c-3.22,9.2 -23.46,24.38 -32.66,21.16l3.22,27.6c0,0 26.22,-1.38 30.82,-11.5l-7.81,98.49l6.9,0c0,0 3.68,-26.68 6.44,-32.2c2.76,-5.52 8.28,-35.88 8.74,-43.24c0.46,-7.36 7.36,-49.68 13.34,-57l9,-21.85l-0.04,-2.84Z" style="fill-opacity:0.1;fill-rule:nonzero;"/><path d="M790.72,81.18c-4.111,3.215 -9.027,5.239 -14.21,5.85c-4.577,0.359 -9.026,1.688 -13.05,3.9c-4.73,2.65 -10,6.5 -11.6,11.19c-3.22,9.2 -23.46,24.38 -32.66,21.16l3.22,27.6c0,0 26.22,-1.38 30.82,-11.5l-7.82,98.43l6.9,0c0,0 3.68,-26.68 6.44,-32.2c2.76,-5.52 8.28,-35.88 8.74,-43.24c0.46,-7.36 7.36,-49.68 13.34,-57l9.88,-21.44l0,-2.75Z" style="fill-opacity:0.1;fill-rule:nonzero;"/><path d="M790.72,80.26c-4.111,3.215 -9.027,5.239 -14.21,5.85c-4.579,0.351 -9.032,1.674 -13.06,3.88c-4.73,2.65 -10,6.5 -11.6,11.19c-3.22,9.2 -23.46,24.38 -32.66,21.16l3.22,27.6c0,0 26.22,-1.38 30.82,-11.5l-7.81,98.49l6.9,0c0,0 3.68,-26.68 6.44,-32.2c2.76,-5.52 8.28,-35.88 8.74,-43.24c0.46,-7.36 7.36,-49.68 13.34,-57l9.89,-21.39l-0.01,-2.84Z" style="fill:#5e5e5e;fill-rule:nonzero;"/><path d="M814.18,62.55c-0.6,-4.36 0.6,-7.08 1.15,-12.19l-26.22,19.78c0,0 0.63,2.67 1.11,6.58c1.323,0.214 2.66,0.321 4,0.32c9.1,0 15.65,-7.11 19.96,-14.49Z" style="fill-opacity:0.1;fill-rule:nonzero;"/><circle cx="794.17" cy="50.83" r="24.84" style="fill:#fec3be;"/><path d="M767.06,26.48c-0.159,-4.189 0.521,-8.368 2,-12.29c-0.846,1.27 -0.623,2.988 0.52,4c0.801,-4.274 2.996,-8.165 6.24,-11.06c-1.77,0.29 -2.68,2.48 -2.24,4.22c0.598,1.699 1.662,3.197 3.07,4.32c-0.15,-2.63 1.59,-5.09 3.79,-6.53c2.292,-1.317 4.796,-2.224 7.4,-2.68c-1.83,0.65 -3.002,2.465 -2.84,4.4c0.008,0.321 0.141,0.626 0.37,0.85c0.25,0.16 0.544,0.237 0.84,0.22c2.591,0.1 5.186,0.043 7.77,-0.17c3.177,-0.358 6.373,-0.528 9.57,-0.51c10,0.42 20.05,7.25 22.29,17c0.464,2.366 0.709,4.769 0.73,7.18l0.49,12.31c0.285,3.591 0.137,7.204 -0.44,10.76c-1.401,6.643 -5.699,12.324 -11.71,15.48c-3.61,-5.23 -3.93,-11.95 -5.18,-18.18c-0.197,-1.438 -0.732,-2.808 -1.56,-4c-0.874,-1.205 -2.424,-1.728 -3.85,-1.3c-1.35,0.54 -1.93,2.6 -0.81,3.52c-1,1.18 -2.87,0.3 -4,-0.75c-3.155,-2.993 -5.328,-6.875 -6.23,-11.13c-0.45,-2.14 -0.9,-4.78 -3,-5.51c-0.722,-0.199 -1.477,-0.25 -2.22,-0.15c-4.38,0.3 -11.23,2.11 -15.47,0.72c-3.89,-1.27 -5.53,-7.03 -5.53,-10.72Z" style="fill-opacity:0.1;fill-rule:nonzero;"/><path d="M767.52,26.02c-0.159,-4.189 0.521,-8.368 2,-12.29c-0.846,1.27 -0.623,2.988 0.52,4c0.801,-4.274 2.996,-8.165 6.24,-11.06c-1.77,0.29 -2.68,2.48 -2.24,4.22c0.598,1.699 1.662,3.197 3.07,4.32c-0.15,-2.63 1.59,-5.09 3.79,-6.53c2.292,-1.317 4.796,-2.224 7.4,-2.68c-1.83,0.65 -3.002,2.465 -2.84,4.4c0.008,0.321 0.141,0.626 0.37,0.85c0.25,0.16 0.544,0.237 0.84,0.22c2.591,0.1 5.186,0.043 7.77,-0.17c3.177,-0.358 6.373,-0.528 9.57,-0.51c10,0.42 20.05,7.25 22.29,17c0.464,2.366 0.709,4.769 0.73,7.18l0.49,12.31c0.285,3.591 0.137,7.204 -0.44,10.76c-1.401,6.643 -5.699,12.324 -11.71,15.48c-3.61,-5.23 -3.93,-11.95 -5.18,-18.18c-0.197,-1.438 -0.732,-2.808 -1.56,-4c-0.874,-1.205 -2.424,-1.728 -3.85,-1.3c-1.35,0.54 -1.93,2.6 -0.81,3.52c-1,1.18 -2.87,0.3 -4,-0.75c-3.155,-2.993 -5.328,-6.875 -6.23,-11.13c-0.45,-2.14 -0.9,-4.78 -3,-5.51c-0.722,-0.199 -1.477,-0.25 -2.22,-0.15c-4.38,0.3 -11.23,2.11 -15.47,0.72c-3.89,-1.28 -5.53,-7.03 -5.53,-10.72Z" style="fill:#644242;fill-rule:nonzero;"/><path d="M718,122.35c0,0 -3.68,17 3.22,27.6l3.91,-0.32l-2.13,-27l-5,-0.28Z" style="fill-opacity:0.1;fill-rule:nonzero;"/><path d="M719,122.35c0,0 -3.68,17 3.22,27.6l3.91,-0.32l-2.13,-27l-5,-0.28Z" style="fill:#5e5e5e;fill-rule:nonzero;"/><path d="M817.86,75.93l29.67,25.53c0,0 17.48,17.94 10.12,46.92c0,0 -3.22,42.32 -6.9,44.16c0,0 -12.88,25.76 -13.8,50.14c0,0 -17.25,-34.73 -25.07,-13.57c-7.82,21.16 -26,24.15 -26,24.15l10.12,-125.16c0,0 25.54,-44.39 21.86,-52.17Z" style="fill-opacity:0.1;fill-rule:nonzero;"/><path d="M818.78,75.93l29.67,25.53c0,0 17.48,17.94 10.12,46.92c0,0 -3.22,42.32 -6.9,44.16c0,0 -12.88,25.76 -13.8,50.14c0,0 -18.17,-36.57 -26,-15.41c-7.83,21.16 -25.07,26 -25.07,26l10.12,-125.11c0,0 25.54,-44.45 21.86,-52.23Z" style="fill:#5e5e5e;fill-rule:nonzero;"/><path d="M832.35,183.76c0,0 7.36,-5.06 19.32,8.74l-29.44,53.36l-9.89,-14.93c0,0 20.93,-41.19 20.01,-47.17Z" style="fill:#fec3be;fill-rule:nonzero;"/><path d="M825.22,186.75c0,0 16.28,18.28 22.63,15.35l5.88,-13.69l-22.07,-9.48l-6.44,7.82Z" style="fill-opacity:0.1;fill-rule:nonzero;"/><path d="M825.22,185.83c0,0 16.28,18.28 22.63,15.35l5.88,-13.69l-22.07,-9.48l-6.44,7.82Z" style="fill:#5e5e5e;fill-rule:nonzero;"/><path d="M813.34,227.44c0,0 7.75,15.88 11.88,16.8l-6,6.9l-8.74,-16.56l2.86,-7.14Z" style="fill-opacity:0.1;fill-rule:nonzero;"/><path d="M812.88,227.93c0,0 7.75,15.88 11.88,16.8l-6,6.9l-8.76,-16.59l2.88,-7.11Z" style="fill:#4d4981;fill-rule:nonzero;"/><path d="M827.52,129.71c0,0 0.92,33.12 -2.76,45.54" style="fill-opacity:0.1;fill-rule:nonzero;"/><path d="M753,136.15c0,0 5.52,-1.84 5.52,-6.44" style="fill-opacity:0.1;fill-rule:nonzero;"/><path d="M82.69,141.69c0,0 -26.22,54.24 -9,118.43c17.22,64.19 11.75,141 -5.42,160" style="fill:none;stroke:#535461;stroke-width:2px;"/><circle cx="82.69" cy="141.7" r="7.23" style="fill:#9dc5bf;"/><path d="M71.79,176.58c0,0 27.18,4.9 34.41,-5" style="fill:none;stroke:#535461;stroke-width:2px;"/><path d="M69.21,192.33c0,0 -16.35,-18.09 -15.45,-28.94" style="fill:none;stroke:#535461;stroke-width:2px;"/><path d="M67.82,225.47c0,0 14.87,3.92 28.44,-25" style="fill:none;stroke:#535461;stroke-width:2px;"/><path d="M71.79,249.57c0,0 -37,-23.81 -32.49,-39.17" style="fill:none;stroke:#535461;stroke-width:2px;"/><path d="M77.57,276.82c0,0 25.92,-23 23.21,-45.63" style="fill:none;stroke:#535461;stroke-width:2px;"/><path d="M80.39,292.84c0,0 -33,-9.22 -32,-23.68" style="fill:none;stroke:#535461;stroke-width:2px;"/><path d="M82.69,311.93c0,0 20.79,-19.26 23.5,-31" style="fill:none;stroke:#535461;stroke-width:2px;"/><path d="M84.14,344.68c0,0 -21.33,-24.9 -22.24,-37.55" style="fill:none;stroke:#535461;stroke-width:2px;"/><path d="M84.14,365.29c0,0 23.87,-26.52 25.67,-39.17" style="fill:none;stroke:#535461;stroke-width:2px;"/><circle cx="53.76" cy="165.2" r="7.23" style="fill:#9dc5bf;"/><circle cx="45.63" cy="269.16" r="7.23" style="fill:#9dc5bf;"/><circle cx="39.3" cy="210.4" r="7.23" style="fill:#9dc5bf;"/><circle cx="106.2" cy="171.53" r="7.23" style="fill:#9dc5bf;"/><circle cx="106.2" cy="282.72" r="7.23" style="fill:#9dc5bf;"/><circle cx="94.45" cy="200.46" r="7.23" style="fill:#9dc5bf;"/><circle cx="108.91" cy="330.64" r="7.23" style="fill:#9dc5bf;"/><circle cx="60.09" cy="311.65" r="7.23" style="fill:#9dc5bf;"/><circle cx="101.68" cy="231.19" r="7.23" style="fill:#9dc5bf;"/><defs><linearGradient id="_Linear1" x1="0" y1="0" x2="1" y2="0" gradientUnits="userSpaceOnUse" gradientTransform="matrix(2.23957e-14,-365.75,365.75,2.23957e-14,446.11,421.3)"><stop offset="0" style="stop-color:#808080;stop-opacity:0.247059"/><stop offset="0.54" style="stop-color:#808080;stop-opacity:0.117647"/><stop offset="1" style="stop-color:#808080;stop-opacity:0.0980392"/></linearGradient><linearGradient id="_Linear2" x1="0" y1="0" x2="1" y2="0" gradientUnits="userSpaceOnUse" gradientTransform="matrix(2.86996e-14,-468.7,468.7,2.86996e-14,755.33,468.7)"><stop offset="0" style="stop-color:#808080;stop-opacity:0.247059"/><stop offset="0.54" style="stop-color:#808080;stop-opacity:0.117647"/><stop offset="1" style="stop-color:#808080;stop-opacity:0.0980392"/></linearGradient></defs></svg>