<?xml version="1.0" encoding="UTF-8" standalone="no"?>
<!DOCTYPE svg PUBLIC "-//W3C//DTD SVG 1.1//EN" "http://www.w3.org/Graphics/SVG/1.1/DTD/svg11.dtd">
<svg width="100%" height="100%" viewBox="0 0 1024 838" version="1.1" xmlns="http://www.w3.org/2000/svg" xmlns:xlink="http://www.w3.org/1999/xlink" xml:space="preserve" xmlns:serif="http://www.serif.com/" style="fill-rule:evenodd;clip-rule:evenodd;stroke-linejoin:round;stroke-miterlimit:1.41421;">
    <ellipse cx="176" cy="807.85" rx="176" ry="29.99" style="fill:rgb(157,197,197);fill-opacity:0.1;"/>
    <ellipse cx="847.47" cy="800.75" rx="176" ry="29.99" style="fill:rgb(157,197,197);fill-opacity:0.1;"/>
    <g transform="matrix(1,0,0,1,-88.27,-31.08)">
        <path d="M362.68,31.54C316.68,34 270.2,47.44 234.31,76.33C202.82,101.69 180.11,141.56 185.65,181.62C192.19,228.91 234.38,263.31 250.03,308.42C260.1,337.42 258.53,369.42 251.94,399.42C247.7,418.75 241.18,438.1 228.65,453.42C206.08,480.98 165.35,494.28 154.26,528.13C142.2,564.94 172.59,601.04 201.14,627.22C223.93,648.11 247.8,668.9 276.52,680.35C297.52,688.73 320.31,691.74 342.9,692.94C405.278,696.213 467.648,686.247 525.9,663.7C553.81,652.87 580.81,639.14 610.02,632.61C672.27,618.69 736.32,638.76 799.41,648.16C853.491,656.194 908.452,656.356 962.58,648.64C996.64,643.78 1031.83,635.01 1057.48,612.09C1083.48,588.82 1096.48,552.8 1095.04,517.9C1093.6,483 1078.88,449.4 1057.2,422C1029.2,386.61 990.58,361.43 956.98,331.27C922.767,300.543 893.663,264.566 870.76,224.69C857.56,201.69 846.33,177.28 829.23,157.03C802.56,125.47 763.88,106.7 725.23,92.2C636.07,58.8 543.59,52 450.63,37.24C421.58,32.61 392.11,30 362.68,31.54Z" style="fill:rgb(157,197,197);fill-opacity:0.1;fill-rule:nonzero;"/>
    </g>
    <g>
        <g opacity="0.7">
            <rect x="258.54" y="367.11" width="190.96" height="106.71" style="fill:rgb(246,247,249);"/>
            <circle cx="294.49" cy="414.48" r="19.88" style="fill:rgb(157,197,197);fill-opacity:0.2;"/>
            <rect x="338.61" y="390.92" width="86.62" height="5.45" style="fill:rgb(157,197,197);fill-opacity:0.2;"/>
            <rect x="338.61" y="404.81" width="44.13" height="5.45" style="fill:rgb(157,197,197);fill-opacity:0.2;"/>
            <rect x="338.61" y="418.7" width="71.37" height="5.45" style="fill:rgb(157,197,197);fill-opacity:0.2;"/>
            <rect x="338.61" y="432.59" width="86.62" height="5.45" style="fill:rgb(157,197,197);fill-opacity:0.2;"/>
            <rect x="401.27" y="452.64" width="23.97" height="10.53" style="fill:rgb(157,197,197);fill-opacity:0.2;"/>
            <rect x="419.31" y="72.2" width="190.96" height="106.71" style="fill:rgb(246,247,249);"/>
            <circle cx="455.27" cy="119.57" r="19.88" style="fill:rgb(157,197,197);fill-opacity:0.2;"/>
            <rect x="499.39" y="96.01" width="86.62" height="5.45" style="fill:rgb(157,197,197);fill-opacity:0.2;"/>
            <rect x="499.39" y="109.9" width="44.13" height="5.45" style="fill:rgb(157,197,197);fill-opacity:0.2;"/>
            <rect x="499.39" y="123.79" width="71.37" height="5.45" style="fill:rgb(157,197,197);fill-opacity:0.2;"/>
            <rect x="499.39" y="137.69" width="86.62" height="5.45" style="fill:rgb(157,197,197);fill-opacity:0.2;"/>
            <rect x="562.04" y="157.73" width="23.97" height="10.53" style="fill:rgb(157,197,197);fill-opacity:0.2;"/>
            <rect x="482.87" y="251.36" width="190.96" height="106.71" style="fill:rgb(246,247,249);"/>
            <circle cx="518.82" cy="298.74" r="19.88" style="fill:rgb(157,197,197);fill-opacity:0.2;"/>
            <rect x="562.95" y="275.18" width="86.62" height="5.45" style="fill:rgb(157,197,197);fill-opacity:0.2;"/>
            <rect x="562.95" y="289.07" width="44.13" height="5.45" style="fill:rgb(157,197,197);fill-opacity:0.2;"/>
            <rect x="562.95" y="302.96" width="71.37" height="5.45" style="fill:rgb(157,197,197);fill-opacity:0.2;"/>
            <rect x="562.95" y="316.85" width="86.62" height="5.45" style="fill:rgb(157,197,197);fill-opacity:0.2;"/>
            <rect x="625.6" y="336.9" width="23.97" height="10.53" style="fill:rgb(157,197,197);fill-opacity:0.2;"/>
        </g>
    </g>
    <rect x="191.88" y="135.71" width="321.11" height="181.44" style="fill:url(#_Linear1);"/>
    <rect x="194.15" y="137.96" width="316.6" height="176.93" style="fill:rgb(246,247,249);"/>
    <circle cx="253.75" cy="216.51" r="32.96" style="fill:rgb(157,197,197);fill-opacity:0.2;"/>
    <rect x="326.92" y="177.44" width="143.62" height="9.03" style="fill:rgb(157,197,197);fill-opacity:0.2;"/>
    <rect x="326.92" y="200.48" width="73.16" height="9.03" style="fill:rgb(157,197,197);fill-opacity:0.2;"/>
    <rect x="326.92" y="223.51" width="118.33" height="9.03" style="fill:rgb(157,197,197);fill-opacity:0.2;"/>
    <rect x="326.92" y="246.54" width="143.62" height="9.03" style="fill:rgb(157,197,197);fill-opacity:0.2;"/>
    <rect x="430.79" y="279.78" width="39.74" height="17.46" style="fill:rgb(157,197,197);"/>
    <rect x="417.12" y="380.82" width="305.42" height="170.67" style="fill:url(#_Linear2);"/>
    <rect x="419.23" y="381.99" width="301.2" height="168.32" style="fill:rgb(246,247,249);"/>
    <circle cx="475.94" cy="456.72" r="31.36" style="fill:rgb(157,197,197);fill-opacity:0.2;"/>
    <rect x="545.54" y="419.55" width="136.63" height="8.59" style="fill:rgb(157,197,197);fill-opacity:0.2;"/>
    <rect x="545.54" y="441.47" width="69.6" height="8.59" style="fill:rgb(157,197,197);fill-opacity:0.2;"/>
    <rect x="545.54" y="463.38" width="112.57" height="8.59" style="fill:rgb(157,197,197);fill-opacity:0.2;"/>
    <rect x="545.54" y="485.29" width="136.63" height="8.59" style="fill:rgb(157,197,197);fill-opacity:0.2;"/>
    <rect x="644.36" y="516.91" width="37.81" height="16.61" style="fill:rgb(157,197,197);fill-opacity:0.5;"/>
    <g transform="matrix(1,0,0,1,-88.27,-31.08)">
        <path d="M171.13,319L171.87,319.16C171.654,319.012 171.388,318.954 171.13,319Z" style="fill:url(#_Linear3);fill-rule:nonzero;"/>
    </g>
    <g transform="matrix(1,0,0,1,-88.27,-31.08)">
        <path d="M325.85,435.17C323.64,420.33 310.16,385.71 310.16,385.71C309.92,384.71 309.66,383.65 309.36,382.63C299.79,349.74 286.55,346.83 286.55,346.83L239.12,336.72C239.511,336.965 239.851,337.284 240.12,337.66L239.37,337.78C237.193,335.213 235.755,332.101 235.21,328.78C235.12,328.29 235.04,327.78 234.98,327.26C241.424,320.985 245.062,312.362 245.062,303.368C245.062,293.116 240.335,283.417 232.26,277.1C231.77,276.71 231.26,276.34 230.74,275.97C232.98,273.6 233.05,270.29 231.38,266.97C227.64,259.2 219.52,254.29 211.16,251.9C204.78,250.07 197.86,249.48 191.54,251.48C187.93,252.62 184.65,254.55 181.27,256.24C174.97,259.39 168.03,261.88 163.27,267.05C162.16,268.26 161.15,269.8 161.47,271.39C161.72,272.58 162.65,273.49 163.26,274.55C164.61,276.91 164.26,279.88 163.35,282.45C162.44,285.02 161.06,287.45 160.41,290.05C159.76,292.65 160.02,295.79 162,297.67C162.962,298.423 163.963,299.124 165,299.77C166.086,300.69 167.039,301.757 167.83,302.94L173.45,310.53C176.073,313.895 178.415,317.47 180.45,321.22C181.84,323.97 182.93,326.92 184.8,329.38C185.35,330.112 185.977,330.782 186.67,331.38C186.49,331.31 186.3,331.25 186.12,331.17C187.793,332.801 190.066,333.673 192.4,333.58L192.68,333.58C193.109,333.573 193.519,333.405 193.83,333.11L193.83,334.11C193.93,337.76 193.92,341.64 193.66,345.28L193.22,345.06C191.892,344.393 190.29,344.562 189.13,345.49L145.44,380.49C145.44,380.49 135.95,393.49 137.27,415.89L129.62,449.51C129.62,449.51 120.05,478.04 127.41,498.41C134.77,518.78 139.04,530.41 139.04,530.41C139.04,530.41 141.98,553.55 146.4,555.41C150.82,557.27 152.73,558.33 152.73,558.33L153.61,563.86C153.61,563.86 153.9,564.39 154.42,565.31C157.64,570.9 169.55,590.64 176.48,588.54C177.346,593.898 177.724,599.324 177.61,604.75L184.45,650.75C184.45,650.75 189.23,663.26 188.94,669.81C188.65,676.36 194.53,685.68 194.53,685.68C190.961,692.206 189.915,699.823 191.59,707.07C194.39,719.3 197.92,775.76 197.92,775.76L203.07,789.44L202.92,805.44C202.494,808.038 201.405,810.484 199.76,812.54C196.44,816.14 196.66,820.3 188.76,825.21C180.86,830.12 175.76,831.97 175.76,838.52C175.751,839.425 175.671,840.328 175.52,841.22C174.78,846.01 173.35,848.59 188.02,849.99C205.24,851.62 216.72,840.38 216.72,840.38C216.72,840.38 219.25,835.79 231.18,833.94C231.18,833.94 235.25,833.72 235.48,830.11C235.56,828.87 235.54,826.49 235.43,823.87C235.24,818.87 234.76,813.05 234.13,812.76C233.34,812.41 231.94,807.38 231.46,805.56L234.78,805.56C234.78,805.56 237.87,782.42 234.78,767.42C231.69,752.42 234.49,741.81 234.49,741.81L233.9,702.23C233.9,702.23 229.73,698 233,690.3C236.27,682.6 233,644.46 233,644.46C233,644.46 234.19,630.78 237.57,627.58C240.95,624.38 237.74,607.53 237.57,606.65L243.57,626.85C243.57,626.85 246.22,667.02 251.82,674.3L253.44,692.48C253.44,692.48 264.92,709.22 262.71,718.25C260.5,727.28 265.07,759.87 265.07,759.87L265.07,793.2C265.07,793.2 259.91,806.59 267.13,811.39L270.24,811.27C269.18,812.27 268.42,813.66 267.24,814.89C265.86,816.31 265.08,821.71 264.64,826.35C264.27,830.28 264.15,833.66 264.15,833.66C264.15,833.66 267.24,838.57 272.98,838.9C278.72,839.23 297.71,853.75 297.71,853.75C297.71,853.75 316.49,853.75 321.34,852.75L321.63,852.68C323.187,852.184 324.498,851.11 325.29,849.68C326.268,848.025 326.586,846.059 326.18,844.18C325.57,841.31 323.3,838.18 318.25,835.49C305.66,828.84 303.79,822.62 303.79,822.62L295.54,810.26L296.72,810.26C296.72,810.26 295.99,797.16 304.96,782.46L304.38,717.7C304.38,717.7 308.05,695.43 301.73,683.35C301.73,683.35 301.21,670.54 305.44,666.61C309.67,662.68 299.81,622.95 299.81,622.95C299.81,622.95 297.81,601.63 295.37,582.17C305.3,591.59 315.61,557.66 317.37,551.63L317.63,551.63C317.63,551.63 317.58,551.47 317.51,551.19C317.44,550.91 317.63,550.76 317.63,550.76C317.63,550.71 315.43,542.91 317.04,544.5C318.65,546.09 322.64,540.14 322.64,540.14C322.64,540.14 322.05,507.68 328.97,491.32C335.89,474.96 325.85,435.17 325.85,435.17ZM296.26,455.82L296.31,455.73C297.31,475.55 296.11,517.84 296.11,517.84C296.11,517.84 294.75,523.26 293.29,529.64L292.24,489.46L291.24,451.62L296.26,455.82ZM169.53,442.16C169.53,442.16 174.53,504.74 169.53,513.76C168.1,516.33 166.91,520.9 165.92,526.13C164.27,521.79 160.77,511.6 162.02,506.2C163.64,499.2 158.78,480.87 158.78,480.44C158.78,480.01 158.34,470.25 161.87,462.75C165.4,455.25 163.05,452.05 163.05,452.05C163.05,452.05 166,439.83 169.53,442.16Z" style="fill:url(#_Linear4);fill-rule:nonzero;"/>
    </g>
    <g transform="matrix(1,0,0,1,-88.27,-31.08)">
        <path d="M181.71,583.1C177.36,602.26 160.02,573.28 156.07,566.33L155.27,564.89L157.15,556.08L167.09,552.03C168.66,552.851 170.147,553.822 171.53,554.93C177,559.17 185.07,568.26 181.71,583.1Z" style="fill:rgb(239,183,185);fill-rule:nonzero;"/>
    </g>
    <g transform="matrix(1,0,0,1,-88.27,-31.08)">
        <path d="M316.21,551.74L316.1,552.17C316.1,552.3 316.01,552.45 315.96,552.64C314.26,558.64 304.15,592.3 294.39,582.95C283.71,572.69 288.9,549.13 288.9,549.13L289,549.13L311.47,546.83L315.92,551.41L316.21,551.74Z" style="fill:rgb(239,183,185);fill-rule:nonzero;"/>
    </g>
    <g transform="matrix(1,0,0,1,-88.27,-31.08)">
        <path d="M303.21,717.45L303.78,781.73C294.98,796.33 295.69,809.33 295.69,809.33L266.69,810.48C259.61,805.72 264.69,792.43 264.69,792.43L264.69,759.34C264.69,759.34 260.16,727 262.32,718C264.48,709 253.22,692.43 253.22,692.43L251.64,674.38C246.14,667.16 243.54,627.28 243.54,627.28L237.63,607.28C237.78,608.15 240.85,624.96 237.63,628.05C234.41,631.14 233.15,644.81 233.15,644.81C233.15,644.81 236.33,682.66 233.15,690.31C229.97,697.96 234.01,702.31 234.01,702.31L234.6,741.6C234.6,741.6 231.85,752.15 234.88,767.03C237.91,781.91 234.88,804.88 234.88,804.88L203.68,804.88L203.82,788.88L198.77,775.3C198.77,775.3 195.3,719.25 192.56,707.12C190.914,699.927 191.938,692.375 195.44,685.88C198.942,679.385 189.67,676.63 189.96,670.13C190.25,663.63 185.55,651.21 185.55,651.21L178.83,605.56C179.019,596.777 177.9,588.014 175.51,579.56C171.6,566.56 165.83,549.51 165.83,549.51L172.35,550.09L205.27,553.02C205.27,553.02 285.27,547.64 288.88,552.11C289.64,553.569 290.154,555.144 290.4,556.77C293.99,572.92 298.74,623.48 298.74,623.48C298.74,623.48 308.42,662.92 304.26,666.82C300.1,670.72 300.62,683.43 300.62,683.43C306.82,695.35 303.21,717.45 303.21,717.45Z" style="fill:rgb(68,64,83);fill-rule:nonzero;"/>
    </g>
    <g transform="matrix(1,0,0,1,-88.27,-31.08)">
        <path d="M235.56,829.22C235.33,832.8 231.33,833.02 231.33,833.02C219.63,834.86 217.15,839.42 217.15,839.42C217.15,839.42 205.88,850.57 189,849C174.61,847.62 176,845 176.74,840.3C176.887,839.414 176.964,838.518 176.97,837.62C176.97,831.12 181.97,829.27 189.76,824.4C197.55,819.53 197.34,815.4 200.59,811.83C203.84,808.26 204.17,801.33 204.17,801.33C207.85,794.93 217.17,802.33 217.17,802.33C217.6,804.6 231.47,804.33 231.47,804.33C231.47,804.33 233.31,811.7 234.25,812.13C234.87,812.42 235.34,818.2 235.53,823.13C235.62,825.63 235.63,828 235.56,829.22Z" style="fill:rgb(176,116,115);fill-rule:nonzero;"/>
    </g>
    <g transform="matrix(1,0,0,1,-88.27,-31.08)">
        <path d="M235.56,829.22C235.33,832.8 231.33,833.02 231.33,833.02C219.63,834.86 217.15,839.42 217.15,839.42C217.15,839.42 205.88,850.57 189,849C174.61,847.62 176,845 176.74,840.3C183.17,841.9 195.47,844.12 202.65,840.22C212.65,834.8 219.78,831.01 219.78,831.01L235.51,823C235.62,825.63 235.63,828 235.56,829.22Z" style="fill-opacity:0.1;fill-rule:nonzero;"/>
    </g>
    <g transform="matrix(1,0,0,1,-88.27,-31.08)">
        <path d="M323.74,848.51C322.972,849.937 321.682,851.012 320.14,851.51C320.049,851.543 319.955,851.566 319.86,851.58C315.09,852.58 296.67,852.58 296.67,852.58C296.67,852.58 278,838.12 272.4,837.79C266.8,837.46 263.73,832.59 263.73,832.59C263.73,832.59 263.84,829.23 264.2,825.33C264.64,820.72 265.41,815.33 266.76,813.95C269.26,811.35 269.76,807.78 275.43,810.05C275.43,810.05 283.43,795.94 292.87,806.84L302.63,821.65C302.63,821.65 304.47,827.82 316.83,834.43C321.78,837.08 324.01,840.2 324.6,843.05C325.006,844.913 324.699,846.862 323.74,848.51Z" style="fill:rgb(176,116,115);fill-rule:nonzero;"/>
    </g>
    <g transform="matrix(1,0,0,1,-88.27,-31.08)">
        <path d="M323.74,848.51C322.64,849.44 321.41,850.44 320.14,851.51C320.049,851.543 319.955,851.566 319.86,851.58C315.09,852.58 296.67,852.58 296.67,852.58C296.67,852.58 278,838.12 272.4,837.79C266.8,837.46 263.73,832.59 263.73,832.59C263.73,832.59 263.84,829.23 264.2,825.33C269.93,827.05 278.63,830.08 280.96,833.33C284.53,838.33 295.38,845.24 295.38,845.24C295.38,845.24 315.61,843.3 324.6,843.03C325.011,844.899 324.704,846.856 323.74,848.51Z" style="fill-opacity:0.1;fill-rule:nonzero;"/>
    </g>
    <g transform="matrix(1,0,0,1,-88.27,-31.08)">
        <path d="M245,344.36L218.34,372.53C218.34,372.53 186.05,370.15 191.69,360.61C194.56,355.76 195.01,345.61 194.76,336.75C194.52,328.22 193.64,320.96 193.64,320.96C193.64,320.96 238.93,298.42 235.46,319.44C234.724,323.402 234.68,327.463 235.33,331.44C237.3,342.06 245,344.36 245,344.36Z" style="fill:rgb(239,183,185);fill-rule:nonzero;"/>
    </g>
    <g transform="matrix(1,0,0,1,-88.27,-31.08)">
        <path d="M235.45,319.44C234.714,323.402 234.67,327.463 235.32,331.44C229.066,337.776 220.522,341.341 211.62,341.33C205.46,341.33 198.87,336.33 193.92,333.38C193.68,324.85 193.63,320.96 193.63,320.96C193.63,320.96 238.92,298.42 235.45,319.44Z" style="fill-opacity:0.1;fill-rule:nonzero;"/>
    </g>
    <g transform="matrix(1,0,0,1,-88.27,-31.08)">
        <path d="M245,306.22C245,306.224 245,306.227 245,306.231C245,324.543 229.932,339.611 211.62,339.611C193.308,339.611 178.24,324.543 178.24,306.231C178.24,287.919 193.308,272.851 211.62,272.851C219.184,272.851 226.528,275.422 232.44,280.14C240.369,286.467 244.997,296.076 245,306.22Z" style="fill:rgb(239,183,185);fill-rule:nonzero;"/>
    </g>
    <g transform="matrix(1,0,0,1,-88.27,-31.08)">
        <path d="M290.39,556.69C282.08,576.47 228.62,576.88 228.62,576.88L228.62,555.32L225.38,555.11C226.78,561.28 223.38,576.34 223.38,576.34C181.13,582.34 170.84,558.25 170.84,558.25L172.3,550.01L205.22,552.94C205.22,552.94 285.22,547.56 288.83,552.03C289.604,553.486 290.131,555.061 290.39,556.69Z" style="fill-opacity:0.1;fill-rule:nonzero;"/>
    </g>
    <g transform="matrix(1,0,0,1,-88.27,-31.08)">
        <path d="M228.62,574.28L228.62,552.71L225.38,552.51C226.78,558.68 223.38,573.74 223.38,573.74C191.59,578.22 177.88,565.74 173.05,559.24C172.186,558.123 171.445,556.916 170.84,555.64L183.73,483.05L186.73,376.22L191.38,357.48L192.46,348.48L192.46,348.38L192.57,348.43L195.85,349.84L215.53,358.34L238,341.47L238.33,341.22L239.44,340.38L241.29,341.87L245.88,345.55L260.62,440.69C260.62,440.69 286.18,513.95 290.92,543.52C291.11,544.7 291.27,545.8 291.39,546.83C294.5,573.78 228.62,574.28 228.62,574.28Z" style="fill:rgb(225,231,239);fill-rule:nonzero;"/>
    </g>
    <circle cx="129.73" cy="329.32" r="1.9" style="fill:rgb(103,100,126);"/>
    <circle cx="130.61" cy="346.65" r="1.9" style="fill:rgb(103,100,126);"/>
    <circle cx="132.5" cy="374.72" r="1.9" style="fill:rgb(103,100,126);"/>
    <circle cx="135.65" cy="404.94" r="1.9" style="fill:rgb(103,100,126);"/>
    <circle cx="137.54" cy="433.33" r="1.9" style="fill:rgb(103,100,126);"/>
    <circle cx="139.44" cy="463.56" r="1.9" style="fill:rgb(103,100,126);"/>
    <circle cx="138.68" cy="493.47" r="1.9" style="fill:rgb(103,100,126);"/>
    <g transform="matrix(1,0,0,1,-88.27,-31.08)">
        <path d="M193.8,493.61C193.8,493.61 191.68,521.41 187.8,529.49C183.92,537.57 182.16,560.26 182.16,560.26L173.16,559.26C172.296,558.143 171.555,556.936 170.95,555.66L183.84,483.07L186.84,376.24L191.49,357.5L192.57,348.5C192.605,348.473 192.646,348.456 192.69,348.45C193.712,347.967 194.903,347.986 195.91,348.5L196.35,348.72C196.22,349.09 196.09,349.47 195.97,349.86C192.45,360.91 191.13,381.29 191.13,381.29C191.13,381.29 196.19,418.56 196.76,435.9C197.33,453.24 193.8,493.61 193.8,493.61Z" style="fill-opacity:0.1;fill-rule:nonzero;"/>
    </g>
    <g transform="matrix(1,0,0,1,-88.27,-31.08)">
        <path d="M171.53,554.93C171.431,555.16 171.317,555.384 171.19,555.6C167.68,561.53 158.78,565.3 156.07,566.33L155.27,564.89L157.15,556.08L167.09,552.03C168.66,552.851 170.147,553.822 171.53,554.93Z" style="fill-opacity:0.1;fill-rule:nonzero;"/>
    </g>
    <g transform="matrix(1,0,0,1,-88.27,-31.08)">
        <path d="M147.47,413.06L139.24,418L131.72,451.37C131.72,451.37 122.33,479.69 129.56,499.91C136.79,520.13 141,531.66 141,531.66C141,531.66 143.89,554.66 148.22,556.51C152.55,558.36 154.44,559.4 154.44,559.4L155.3,564.89C155.3,564.89 167.06,560.89 171.22,553.89C175.38,546.89 168.16,529.38 168.16,529.38C168.16,529.38 161.95,514.5 163.54,507.57C165.13,500.64 160.36,482.43 160.36,482C160.36,481.57 159.93,471.88 163.36,464.44C166.79,457 164.52,453.83 164.52,453.83L162.35,432.59L147.47,413.06Z" style="fill:rgb(103,100,126);fill-rule:nonzero;"/>
    </g>
    <g transform="matrix(1,0,0,1,-88.27,-31.08)">
        <path d="M291.07,550.44C291.07,550.44 269.26,558.68 262.32,551.44C255.38,544.2 256.11,510.44 256.11,510.44C256.11,510.44 249.47,448.03 245.27,437.78C241.07,427.53 243.27,353.55 243.27,353.55C243.27,353.55 240.43,344 238,341.47C237.847,341.304 237.672,341.159 237.48,341.04L238.33,341.22L241.33,341.87L245.92,345.55L260.66,440.69C260.66,440.69 286.22,513.95 290.96,543.52L291.07,550.44Z" style="fill-opacity:0.1;fill-rule:nonzero;"/>
    </g>
    <g transform="matrix(1,0,0,1,-88.27,-31.08)">
        <path d="M316.21,552.61L315.96,552.61C313.22,552.96 288.96,555.89 288.87,550.85C288.87,550.265 288.904,549.681 288.97,549.1L311.44,546.8L315.89,551.38C315.97,551.68 316.04,551.94 316.1,552.14L316.21,552.61Z" style="fill-opacity:0.1;fill-rule:nonzero;"/>
    </g>
    <g transform="matrix(1,0,0,1,-88.27,-31.08)">
        <path d="M293,379.63L308.95,387.94C308.95,387.94 322.18,422.3 324.35,437.04C324.35,437.04 334.17,476.51 327.35,492.74C320.53,508.97 321.14,541.2 321.14,541.2C321.14,541.2 317.24,547.12 315.65,545.53C314.06,543.94 316.23,551.74 316.23,551.74C316.23,551.74 289,555.36 288.87,550C288.74,544.64 295.12,519.08 295.12,519.08C295.12,519.08 296.85,458.26 294.39,448.73C291.93,439.2 293,379.63 293,379.63Z" style="fill:rgb(103,100,126);fill-rule:nonzero;"/>
    </g>
    <g transform="matrix(1,0,0,1,-88.27,-31.08)">
        <path d="M245.42,444.41C245.42,444.41 236.42,466.36 233.57,467.81C230.72,469.26 234.15,475.03 234.15,475.03C234.15,475.03 250.48,452.21 245.42,444.41Z" style="fill-opacity:0.1;fill-rule:nonzero;"/>
    </g>
    <g transform="matrix(1,0,0,1,-88.27,-31.08)">
        <path d="M240.08,367.4C240.18,366.98 229.38,377.99 226.5,379.63C223.62,381.27 237,379.54 240.08,367.4Z" style="fill-opacity:0.1;fill-rule:nonzero;"/>
    </g>
    <g transform="matrix(1,0,0,1,-88.27,-31.08)">
        <path d="M210,442.67C210,442.67 193.53,453.33 195.69,457.53C197.85,461.73 210,442.67 210,442.67Z" style="fill-opacity:0.1;fill-rule:nonzero;"/>
    </g>
    <g transform="matrix(1,0,0,1,-88.27,-31.08)">
        <path d="M239.93,598.12C239.93,598.12 253.93,607.12 275.76,609.39L239.93,598.12Z" style="fill-opacity:0.1;fill-rule:nonzero;"/>
    </g>
    <g transform="matrix(1,0,0,1,-88.27,-31.08)">
        <path d="M206.27,619.79C206.27,619.79 219.27,636.11 225.2,636.55C231.13,636.99 206.27,619.79 206.27,619.79Z" style="fill-opacity:0.1;fill-rule:nonzero;"/>
    </g>
    <g transform="matrix(1,0,0,1,-88.27,-31.08)">
        <path d="M224.47,683.79C223.89,684.08 217.1,698.52 210.17,698.96C203.24,699.4 224.47,683.79 224.47,683.79Z" style="fill-opacity:0.1;fill-rule:nonzero;"/>
    </g>
    <g transform="matrix(1,0,0,1,-88.27,-31.08)">
        <path d="M284.72,715.42C284.72,715.42 297.6,712.54 300.46,721.78C300.46,721.78 299.6,718.89 284.72,715.42Z" style="fill-opacity:0.1;fill-rule:nonzero;"/>
    </g>
    <g transform="matrix(1,0,0,1,-88.27,-31.08)">
        <path d="M276.05,768.3C276.05,768.3 291.65,765.12 294.97,769.46C298.29,773.8 276.05,768.3 276.05,768.3Z" style="fill-opacity:0.1;fill-rule:nonzero;"/>
    </g>
    <g transform="matrix(1,0,0,1,-88.27,-31.08)">
        <path d="M231.89,775.67C231.89,775.81 216,778.85 216.63,780.87C217.26,782.89 233.57,782.6 234.15,779.42C234.225,779.154 234.263,778.88 234.263,778.604C234.263,777.194 233.269,775.965 231.89,775.67Z" style="fill-opacity:0.1;fill-rule:nonzero;"/>
    </g>
    <g transform="matrix(1,0,0,1,-88.27,-31.08)">
        <path d="M270.85,789.39C270.85,789.39 296.95,786.21 295.31,791.7C293.67,797.19 270.85,789.39 270.85,789.39Z" style="fill-opacity:0.1;fill-rule:nonzero;"/>
    </g>
    <g transform="matrix(1,0,0,1,-88.27,-31.08)">
        <path d="M134.18,467.81C134.33,468.24 151.37,470.55 153.68,476.04C153.68,476.04 136.93,468.24 134.33,468.24" style="fill-opacity:0.1;fill-rule:nonzero;"/>
    </g>
    <g transform="matrix(1,0,0,1,-88.27,-31.08)">
        <path d="M158.16,512.45C158.16,512.45 144,516.93 145,523.72C146,530.51 143.57,520.55 158.16,512.45Z" style="fill-opacity:0.1;fill-rule:nonzero;"/>
    </g>
    <g transform="matrix(1,0,0,1,-88.27,-31.08)">
        <path d="M151.56,546.83C151.56,546.83 156.72,539.75 161.63,541.05C166.54,542.35 151.56,546.83 151.56,546.83Z" style="fill-opacity:0.1;fill-rule:nonzero;"/>
    </g>
    <g transform="matrix(1,0,0,1,-88.27,-31.08)">
        <path d="M232.43,280.14C231.931,280.621 231.373,281.038 230.77,281.38C226.66,283.76 225.56,287.38 223.59,291.65C221.79,295.52 219.8,299.65 216.15,301.81C211.45,304.64 205.25,303.6 200.36,306.08C195.936,308.398 193.343,313.189 193.82,318.16C194.138,320.038 194.606,321.887 195.22,323.69C196.323,327.591 196.826,331.638 196.71,335.69C196.725,335.813 196.725,335.937 196.71,336.06C185.405,330.42 178.233,318.825 178.233,306.191C178.233,287.88 193.301,272.811 211.613,272.811C219.193,272.811 226.552,275.393 232.47,280.13L232.43,280.14Z" style="fill-opacity:0.1;fill-rule:nonzero;"/>
    </g>
    <g transform="matrix(1,0,0,1,-88.27,-31.08)">
        <path d="M231.56,270.1C227.89,262.39 219.92,257.52 211.72,255.1C205.46,253.29 198.67,252.7 192.46,254.69C188.92,255.82 185.69,257.69 182.38,259.41C176.19,262.54 169.38,265.01 164.73,270.15C163.65,271.34 162.65,272.88 162.97,274.46C163.21,275.64 164.13,276.54 164.72,277.59C166.05,279.93 165.72,282.88 164.81,285.43C163.9,287.98 162.57,290.36 161.93,292.98C161.29,295.6 161.54,298.67 163.48,300.54C164.417,301.283 165.392,301.977 166.4,302.62C167.46,303.542 168.391,304.601 169.17,305.77L174.68,313.3C177.271,316.642 179.579,320.194 181.58,323.92C182.96,326.65 184.02,329.57 185.85,332.01C187.68,334.45 190.55,336.41 193.59,336.14C194.066,336.156 194.522,335.939 194.81,335.56C194.93,335.322 194.985,335.056 194.97,334.79C195.094,330.737 194.592,326.689 193.48,322.79C192.866,320.987 192.398,319.138 192.08,317.26C191.606,312.289 194.198,307.5 198.62,305.18C203.52,302.71 209.72,303.75 214.42,300.92C218.07,298.71 220.06,294.62 221.86,290.75C223.86,286.52 224.93,282.86 229.04,280.48C233.15,278.1 233.59,274.15 231.56,270.1Z" style="fill:rgb(88,82,104);fill-rule:nonzero;"/>
    </g>
    <g transform="matrix(1,0,0,1,-88.27,-31.08)">
        <path d="M216.61,815.58C216.61,815.58 221.69,822.08 220.39,825.76C219.09,829.44 216.61,815.58 216.61,815.58Z" style="fill-opacity:0.1;fill-rule:nonzero;"/>
    </g>
    <g transform="matrix(1,0,0,1,-88.27,-31.08)">
        <path d="M285.68,831.83C285.68,831.83 286.81,823.11 291.36,823.03C295.91,822.95 296.13,822.56 299.6,823.89C303.07,825.22 306.32,827.3 305.29,827.62C304.26,827.94 299.29,822.62 294.29,825.33C291.113,827.057 288.212,829.248 285.68,831.83Z" style="fill-opacity:0.1;fill-rule:nonzero;"/>
    </g>
    <g transform="matrix(1,0,0,1,-88.27,-31.08)">
        <path d="M201.38,369.23L215.62,359.23C215.62,359.23 194.71,346.87 192.22,348.61C189.73,350.35 188.02,365.95 188.02,365.95L201.38,369.23Z" style="fill-opacity:0.1;fill-rule:nonzero;"/>
    </g>
    <g transform="matrix(1,0,0,1,-88.27,-31.08)">
        <path d="M201.32,368.58L215.62,358.34C215.62,358.34 194.71,345.99 192.22,347.72C189.73,349.45 188.02,365.93 188.02,365.93L201.32,368.58Z" style="fill:rgb(225,231,239);fill-rule:nonzero;"/>
    </g>
    <g transform="matrix(1,0,0,1,-88.27,-31.08)">
        <path d="M201.32,368.58L215.62,358.34C215.62,358.34 194.71,345.99 192.22,347.72C189.73,349.45 188.02,365.93 188.02,365.93L201.32,368.58Z" style="fill-opacity:0.03;fill-rule:nonzero;"/>
    </g>
    <g transform="matrix(1,0,0,1,-88.27,-31.08)">
        <path d="M194.58,347.84L194.15,347.62C192.853,346.958 191.281,347.123 190.15,348.04L147.27,382.83C147.27,382.83 137.95,395.72 139.27,417.97L164.55,453.8C164.55,453.8 167.44,441.66 170.91,443.97C170.91,443.97 175.82,506.09 170.91,515.05C166,524.01 163.83,557.52 163.83,557.52L180.44,559.4C180.44,559.4 182.17,536.72 186.07,528.63C189.97,520.54 192.07,492.74 192.07,492.74C192.07,492.74 195.58,452.35 195,435C194.42,417.65 189.37,380.4 189.37,380.4C189.37,380.4 190.78,358.56 194.58,347.84Z" style="fill:rgb(103,100,126);fill-rule:nonzero;"/>
    </g>
    <g transform="matrix(1,0,0,1,-88.27,-31.08)">
        <path d="M237.29,362.89L219.48,356.29C219.48,356.29 242.17,331.45 244.99,345.23L237.29,362.89Z" style="fill-opacity:0.1;fill-rule:nonzero;"/>
    </g>
    <g transform="matrix(1,0,0,1,-88.27,-31.08)">
        <path d="M237.29,362L219.48,355.41C219.48,355.41 242.17,330.56 244.99,344.34L237.29,362Z" style="fill:rgb(225,231,239);fill-rule:nonzero;"/>
    </g>
    <g transform="matrix(1,0,0,1,-88.27,-31.08)">
        <path d="M237.29,362L219.48,355.41C219.48,355.41 242.17,330.56 244.99,344.34L237.29,362Z" style="fill-opacity:0.03;fill-rule:nonzero;"/>
    </g>
    <g transform="matrix(1,0,0,1,-88.27,-31.08)">
        <path d="M236.72,340.89C236.973,340.844 237.235,340.898 237.45,341.04L236.72,340.89Z" style="fill-opacity:0.1;fill-rule:nonzero;"/>
    </g>
    <g transform="matrix(1,0,0,1,-88.27,-31.08)">
        <path d="M238.45,339.15L285.73,349.35C285.73,349.35 298.73,352.24 308.12,384.88C317.51,417.52 295.26,457.53 295.26,457.53L290.35,453.36L292.81,548.71C292.81,548.71 270.99,556.94 264.06,549.71C257.13,542.48 257.84,508.71 257.84,508.71C257.84,508.71 251.2,446.28 247,436C242.8,425.72 245,351.77 245,351.77C245,351.77 241.09,338.58 238.45,339.15Z" style="fill:rgb(103,100,126);fill-rule:nonzero;"/>
    </g>
    <g transform="matrix(1,0,0,1,-88.27,-31.08)">
        <path d="M281.68,399.91C281.01,400.53 280.24,429.38 283.13,451.34C284.903,464.713 287.641,477.941 291.32,490.92L287.03,402.92C287.03,402.92 283.7,398 281.68,399.91Z" style="fill-opacity:0.1;fill-rule:nonzero;"/>
    </g>
    <g transform="matrix(1,0,0,1,-88.27,-31.08)">
        <path d="M275.9,375.06C277.06,375.78 282.12,387.77 279.8,392.69C277.48,397.61 275.9,375.06 275.9,375.06Z" style="fill-opacity:0.1;fill-rule:nonzero;"/>
    </g>
    <g transform="matrix(1,0,0,1,-88.27,-31.08)">
        <path d="M231.28,270.1C228.965,265.529 225.349,261.743 220.89,259.22C224.201,261.581 226.877,264.725 228.68,268.37C230.68,272.42 230.12,276.48 226.15,278.78C222.18,281.08 220.94,284.78 218.98,289.05C217.18,292.92 215.18,297.05 211.53,299.21C206.83,302.05 200.64,301.01 195.74,303.47C191.317,305.794 188.724,310.586 189.2,315.56C189.513,317.439 189.981,319.289 190.6,321.09C191.71,324.99 192.209,329.038 192.08,333.09C192.097,333.355 192.046,333.621 191.93,333.86C191.642,334.239 191.186,334.456 190.71,334.44C189.486,334.536 188.258,334.308 187.15,333.78C188.783,335.395 191.015,336.261 193.31,336.17C193.786,336.186 194.242,335.969 194.53,335.59C194.645,335.35 194.7,335.086 194.69,334.82C194.809,330.767 194.307,326.72 193.2,322.82C192.581,321.019 192.113,319.169 191.8,317.29C191.326,312.319 193.918,307.53 198.34,305.21C203.24,302.74 209.43,303.78 214.13,300.95C217.78,298.74 219.78,294.65 221.58,290.78C223.58,286.55 224.64,282.89 228.75,280.51C232.86,278.13 233.3,274.15 231.28,270.1Z" style="fill-opacity:0.1;fill-rule:nonzero;"/>
    </g>
    <ellipse cx="968.23" cy="761.73" rx="41" ry="5.63" style="fill:rgb(157,197,197);fill-opacity:0.1;"/>
    <ellipse cx="646.82" cy="814.56" rx="29.14" ry="4" style="fill:rgb(157,197,197);fill-opacity:0.1;"/>
    <ellipse cx="386.08" cy="784.91" rx="29.14" ry="4" style="fill:rgb(157,197,197);fill-opacity:0.1;"/>
    <g transform="matrix(1,0,0,1,-88.27,-31.08)">
        <path d="M490.4,806.89C492.236,805.395 493.572,803.374 494.23,801.1C494.73,798.81 493.75,796.05 491.55,795.21C489.09,794.27 486.46,795.98 484.47,797.7C482.48,799.42 480.19,801.39 477.59,801.02C480.312,798.547 481.544,794.818 480.83,791.21C480.712,790.476 480.401,789.785 479.93,789.21C478.56,787.75 476.08,788.38 474.45,789.53C469.25,793.18 467.8,800.25 467.77,806.6C467.25,804.31 467.69,801.92 467.67,799.6C467.65,797.28 467.02,794.6 465.03,793.38C463.807,792.703 462.428,792.358 461.03,792.38C458.7,792.29 456.09,792.53 454.5,794.24C452.5,796.36 453.03,799.92 454.75,802.24C456.47,804.56 459.1,806.05 461.52,807.66C463.456,808.814 465.107,810.39 466.35,812.27C466.5,812.533 466.621,812.811 466.71,813.1L481.37,813.1C484.643,811.441 487.68,809.352 490.4,806.89Z" style="fill:rgb(157,197,197);fill-rule:nonzero;"/>
    </g>
    <g transform="matrix(1,0,0,1,-88.27,-31.08)">
        <path d="M1073.13,785.79C1074.98,784.297 1076.33,782.278 1077,780C1077.5,777.71 1076.52,775 1074.32,774.11C1071.86,773.17 1069.23,774.88 1067.24,776.6C1065.25,778.32 1062.96,780.29 1060.35,779.92C1063.08,777.453 1064.31,773.718 1063.59,770.11C1063.48,769.373 1063.17,768.68 1062.69,768.11C1061.33,766.65 1058.85,767.28 1057.22,768.43C1052.02,772.08 1050.57,779.15 1050.54,785.5C1050.01,783.21 1050.46,780.82 1050.44,778.5C1050.42,776.18 1049.78,773.5 1047.8,772.28C1046.58,771.603 1045.2,771.258 1043.8,771.28C1041.46,771.19 1038.86,771.43 1037.26,773.14C1035.26,775.26 1035.79,778.82 1037.52,781.14C1039.25,783.46 1041.87,784.95 1044.29,786.56C1046.23,787.714 1047.88,789.29 1049.12,791.17C1049.27,791.435 1049.39,791.713 1049.48,792L1064.13,792C1067.39,790.341 1070.42,788.252 1073.13,785.79Z" style="fill:rgb(157,197,197);fill-rule:nonzero;"/>
    </g>
    <g transform="matrix(1,0,0,1,-88.27,-31.08)">
        <path d="M743,832.54C744.835,831.042 746.174,829.023 746.84,826.75C747.33,824.45 746.35,821.75 744.16,820.86C741.7,819.92 739.07,821.62 737.08,823.35C735.09,825.08 732.8,827.03 730.19,826.67C732.917,824.2 734.15,820.468 733.43,816.86C733.317,816.124 733.006,815.433 732.53,814.86C731.16,813.4 728.69,814.03 727.05,815.18C721.85,818.84 720.4,825.9 720.37,832.26C719.85,829.97 720.29,827.58 720.28,825.26C720.27,822.94 719.62,820.26 717.64,819.04C716.416,818.366 715.037,818.021 713.64,818.04C711.3,817.96 708.7,818.19 707.1,819.9C705.1,822.03 705.63,825.59 707.36,827.9C709.09,830.21 711.71,831.7 714.12,833.32C716.082,834.488 717.751,836.089 719,838C719.144,838.262 719.264,838.537 719.36,838.82L734,838.82C737.27,837.142 740.297,835.03 743,832.54Z" style="fill:rgb(157,197,197);fill-rule:nonzero;"/>
    </g>
    <g transform="matrix(1,0,0,1,-88.27,-31.08)">
        <path d="M1036.86,376.24C1023.74,375.98 1012.16,366.68 1005.6,355.4C1003.88,352.706 1002.8,349.655 1002.44,346.48C1002.49,345.756 1002.61,345.039 1002.8,344.34C1003.22,343.282 1003.56,342.192 1003.8,341.08C1003.86,340.635 1003.86,340.185 1003.8,339.74C1003.75,339.295 1003.8,339.74 1003.8,339.68C1004.12,337.26 1002.7,334.93 1000.92,333.26C999.14,331.59 996.97,330.38 995.14,328.77C989.5,323.82 987.79,315.88 987.68,308.32C987.68,308.19 987.68,308.06 987.68,307.92C987.74,304.69 988,301.44 987.97,298.2C988.015,296.36 987.935,294.519 987.73,292.69C987.19,288.11 985.45,283.45 981.85,280.53C972.46,272.92 956.67,280.84 946.96,273.64C944.59,271.89 942.68,269.28 939.82,268.64C937.65,268.12 935.4,268.82 933.29,269.52C926.13,271.88 918.15,274.99 915.35,281.95C913.75,285.95 914.2,290.44 912.73,294.46C911.73,297.15 909.96,299.46 908.64,302.02C907.552,303.939 907.022,306.125 907.11,308.33C906.999,309.471 907.16,310.623 907.58,311.69C908.074,312.965 908.871,314.1 909.9,315C909.524,315.793 909.054,316.539 908.5,317.22C906.67,319.46 903.86,321.06 901.96,323.22C898.44,327.3 898.57,332.85 900.31,337.65C902.05,342.45 905.17,346.82 907.31,351.49C908.24,353.49 908.99,355.79 908.02,357.81C907.35,359.21 905.95,360.27 904.86,361.48C903.264,363.271 902.264,365.515 902,367.9C880.57,372.79 880.56,390 880.56,390L869,419.14C869,419.14 867.15,424.04 865,430.51L851.3,428.06L860.76,444C858.95,450.49 857.68,456.51 858.1,459.53C858.1,459.53 853.85,479.53 861.41,483.02L878.11,490.53C878.831,490.967 879.608,491.304 880.42,491.53L881.1,491.83C881.592,492.071 882.168,492.071 882.66,491.83L882.93,491.83C883.27,491.865 883.613,491.817 883.93,491.69C884.305,491.494 884.599,491.171 884.76,490.78C884.764,490.75 884.764,490.72 884.76,490.69L889.76,489.24L894,494.24C895.91,495.58 897.78,496.75 899.61,497.8L893.09,563C893.09,563 892.03,649.66 888.84,669.39C887.65,676.7 887.64,681.68 888.09,685.07L887.97,685.29C888.76,690.86 890.81,691.96 890.81,691.96L890.81,691.88L890.93,691.96C891.896,689.431 893.042,686.975 894.36,684.61C894.36,685.07 894.36,685.54 894.36,686.03C894.3,693.39 894.07,703.68 893.36,710.37C892.06,721.75 896.67,759.45 896.67,759.45L898.26,793.75C898.518,799.569 897.168,805.347 894.36,810.45C890.59,817.3 885.68,826.93 885.36,831.2C885.345,831.433 885.345,831.667 885.36,831.9L877,841.63C877,841.63 873.8,846.56 881,848.55C884.87,849.63 891.56,848.55 896.92,847.28C901.73,846.176 905.171,841.865 905.18,836.93C906.561,832.205 908.881,827.808 912,824L913.35,831.89L922.35,834.12L923.5,812.49C923.967,811.273 924.178,809.972 924.12,808.67C925.89,793.29 919.95,794.67 919.95,794.67C920.101,794.815 920.202,795.004 920.24,795.21C920.14,795.04 920.04,794.86 919.95,794.68C916.3,787.48 918.09,775.68 918.09,775.68C918.09,775.68 922.82,741.4 924.48,732.35C925.65,725.96 925.17,705.02 924.78,693.29C924.78,692.8 924.78,692.29 924.73,691.88C938.66,691.7 955.73,691.22 967.73,690.06L967.73,691.48L965.51,772.48C965.361,777.641 964.315,782.737 962.42,787.54C962.42,787.63 962.34,787.72 962.31,787.81C959.655,794.577 958.141,801.738 957.83,809L956.83,834.74L956.83,835.45C955.04,836.14 952.22,838.13 952.14,843.9C952.02,852.35 966.91,849.53 966.91,849.53C981.8,849.53 981.91,834.03 981.91,834.03C981.91,834.03 982.39,819.82 983.09,810.31C983.79,800.8 980.85,802.9 980.85,802.9L980.63,829.9C980.63,829.97 980.63,830.04 980.63,830.11L980.63,806.4L980.86,802.96L980.86,802.86L980.91,802.13L982.76,774.23C982.76,774.23 996.47,727.73 998.6,718.81C1000.11,712.48 999.48,693.38 998.98,682.81C998.98,682.32 998.98,681.86 998.92,681.41C1003.16,681.03 1006.92,680.99 1008.43,680.99L1009.12,680.99C1009.12,680.99 1008.41,606.31 1006.64,578.13C1004.87,549.95 1002.03,524.23 994.93,516.48C990.65,511.8 984.68,497.34 980.62,486.63C989.087,490.297 997.874,493.176 1006.87,495.23C1029.33,499.93 1026.26,480.43 1026.26,480.43L1023.98,443.56L1024.13,443.56C1024.05,433.9 1023.22,424.262 1021.65,414.73C1020.47,407.42 1018.65,399.86 1015.87,393.73C1018.31,392.8 1020.71,391.73 1023.07,390.73C1029.17,388.04 1036.07,384.22 1036.93,377.64L1036.63,377.64C1036.74,377.18 1036.82,376.712 1036.86,376.24ZM897.64,429.58C897.7,433.39 897.55,439.99 897.33,447.3L890.2,437.78L897.35,426.18L897.64,429.58ZM996.2,463.29L984.32,459.47C986.429,456.185 988.89,453.141 991.66,450.39L992.66,449.39L992.29,449.47L992.87,448.95L993.21,448.87L992.66,449.39L993.31,449.26C994.028,452.244 995.412,455.028 997.36,457.4C1001.6,462.12 996.16,463.29 996.16,463.29L996.2,463.29Z" style="fill:url(#_Linear5);fill-rule:nonzero;"/>
    </g>
    <path d="M835.72,774.95L834.32,801.29L825.46,799.08L823.59,788.12L835.72,774.95Z" style="fill:rgb(162,119,114);fill-rule:nonzero;"/>
    <path d="M835.72,774.95L834.32,801.29L825.46,799.08L823.59,788.12L835.72,774.95Z" style="fill-opacity:0.1;fill-rule:nonzero;"/>
    <g transform="matrix(1,0,0,1,-88.27,-31.08)">
        <path d="M956.51,835.87L970.03,838.67L980.03,829.81L980.03,804.86L980.25,801.45L980.25,801.35L980.3,800.63L982.12,772.93C982.12,772.93 995.64,726.76 997.74,717.93C999.23,711.64 998.61,692.67 998.12,682.19C997.92,677.89 997.74,675.02 997.74,675.02L967.9,667.79L967.27,690.79L965.09,771.19C964.941,776.313 963.906,781.371 962.03,786.14L961.93,786.41C959.332,793.146 957.868,800.266 957.6,807.48L956.6,833.03L956.6,833.74L956.51,835.87Z" style="fill:rgb(255,185,185);fill-rule:nonzero;"/>
    </g>
    <g transform="matrix(1,0,0,1,-88.27,-31.08)">
        <path d="M980.29,800.64L980.29,801.35L980.34,800.63L980.29,800.64Z" style="fill-opacity:0.1;fill-rule:nonzero;"/>
    </g>
    <g transform="matrix(1,0,0,1,-88.27,-31.08)">
        <path d="M956.51,835.87L970.03,838.67L980.03,829.81L980.03,827.69C979.968,828.647 979.425,829.509 978.59,829.98L978.45,830.06C973.794,832.525 968.514,833.569 963.27,833.06L957.99,832.61C957.514,832.663 957.047,832.777 956.6,832.95L956.6,833.66L956.51,835.87Z" style="fill-opacity:0.1;fill-rule:nonzero;"/>
    </g>
    <g transform="matrix(1,0,0,1,-88.27,-31.08)">
        <path d="M978.48,830.76L978.62,830.68C979.517,830.179 980.073,829.227 980.07,828.2L980.29,801.34C980.29,801.34 983.21,799.27 982.51,808.71C981.81,818.15 981.34,832.26 981.34,832.26C981.34,832.26 981.23,847.65 966.54,847.65C966.54,847.65 951.85,850.44 951.96,842.05C952.07,833.66 958.03,833.31 958.03,833.31L963.3,833.77C968.545,834.269 973.823,833.223 978.48,830.76Z" style="fill:rgb(176,116,115);fill-rule:nonzero;"/>
    </g>
    <g transform="matrix(1,0,0,1,-88.27,-31.08)">
        <path d="M886.1,830.16C886.45,836.22 904.28,832.72 904.28,832.72L916.28,809.41C916.28,809.41 926.28,801.71 921.28,794.95C921.008,794.584 920.761,794.199 920.54,793.8L920.54,793.74C920.43,793.56 920.34,793.38 920.24,793.19C916.64,786.05 918.41,774.34 918.41,774.34C918.41,774.34 923.07,740.34 924.71,731.34C925.86,724.99 925.39,704.2 925,692.56C924.85,687.73 924.71,684.47 924.71,684.47L895.09,676.55C895.09,676.55 895.09,680.24 895.09,685.38C895.03,692.68 894.81,702.9 894.09,709.54C892.81,720.85 897.36,758.27 897.36,758.27L898.93,792.33C899.154,798.095 897.794,803.813 895,808.86C891.28,815.66 886.44,825.23 886.1,829.47C886.08,829.7 886.08,829.93 886.1,830.16Z" style="fill:rgb(255,185,185);fill-rule:nonzero;"/>
    </g>
    <g transform="matrix(1,0,0,1,-88.27,-31.08)">
        <path d="M886.1,830.16C886.45,836.22 904.28,832.72 904.28,832.72L916.28,809.41C916.28,809.41 926.28,801.71 921.28,794.95C921.008,794.584 920.761,794.199 920.54,793.8C920.38,797.33 916.54,806.14 916.54,806.14C916.54,806.14 906.63,825.97 903.54,830.51C900.45,835.05 886.69,829.67 886.18,829.51C886.136,829.724 886.109,829.942 886.1,830.16Z" style="fill-opacity:0.1;fill-rule:nonzero;"/>
    </g>
    <g transform="matrix(1,0,0,1,-88.27,-31.08)">
        <path d="M920.22,793.17C920.22,793.17 926.08,791.81 924.34,807.08C924.469,810.609 922.691,813.948 919.69,815.81C915.5,818.45 909.02,824.12 905.75,835.15C905.755,840.037 902.367,844.32 897.61,845.44C892.32,846.67 885.72,847.76 881.9,846.69C874.79,844.69 877.9,839.82 877.9,839.82L886.06,830.14C886.06,830.14 900.28,835.74 903.43,831.19C906.58,826.64 916.43,806.82 916.43,806.82C916.43,806.82 922,794.45 920.22,793.17Z" style="fill:rgb(176,116,115);fill-rule:nonzero;"/>
    </g>
    <g transform="matrix(1,0,0,1,-88.27,-31.08)">
        <path d="M967.94,670.56L967.31,693.56C975.31,692.79 980.95,691.71 981.93,690.2C984.02,686.95 991.66,685.57 998.16,685.01C997.96,680.71 997.78,677.84 997.78,677.84L967.94,670.56Z" style="fill-opacity:0.1;fill-rule:nonzero;"/>
    </g>
    <g transform="matrix(1,0,0,1,-88.27,-31.08)">
        <path d="M895.06,688.14C895.827,686.589 896.947,685.24 898.33,684.2C901.48,682.45 901.14,695.39 901.14,695.39C901.14,695.39 911.59,695.49 924.98,695.32C924.83,690.48 924.69,687.23 924.69,687.23L895.07,679.31C895.07,679.31 895.11,683 895.06,688.14Z" style="fill-opacity:0.1;fill-rule:nonzero;"/>
    </g>
    <g transform="matrix(1,0,0,1,-88.27,-31.08)">
        <path d="M891.69,691.22C891.69,691.22 895.19,681.75 898.33,680.01C901.47,678.27 901.14,691.2 901.14,691.2C901.14,691.2 978.08,691.9 981.93,685.95C985.78,680 1008.16,680.36 1008.16,680.36C1008.16,680.36 1007.46,606.21 1005.71,578.23C1003.96,550.25 1001.16,524.72 994.17,517.03C989.64,512.03 983.17,495.94 979.23,485.2C977.06,479.33 975.63,475.06 975.63,475.06L902.19,479.26L901.59,485.2L893.79,563.2C893.79,563.2 892.79,649.2 889.59,668.82C886.39,688.44 891.69,691.22 891.69,691.22Z" style="fill:rgb(68,64,83);fill-rule:nonzero;"/>
    </g>
    <g>
        <g opacity="0.1">
            <g transform="matrix(1,0,0,1,-88.27,-31.08)">
                <path d="M976,686C979.84,680.06 1002.23,680.41 1002.23,680.41C1002.23,680.41 1001.53,606.26 999.78,578.28C998.03,550.3 995.23,524.77 988.24,517.08C983.71,512.08 977.24,495.99 973.3,485.25C971.48,480.32 970.18,476.52 969.81,475.43L975.51,475.11C975.51,475.11 976.94,479.38 979.11,485.25C983.11,495.99 989.52,512.1 994.05,517.08C1001.05,524.77 1003.84,550.3 1005.59,578.28C1007.34,606.26 1008,680.36 1008,680.36C1008,680.36 985.62,680 981.78,686C978.49,691.08 921.87,691.31 905.43,691.27C926.51,691.17 973,690.54 976,686Z" style="fill-rule:nonzero;"/>
            </g>
            <g transform="matrix(1,0,0,1,-88.27,-31.08)">
                <path d="M892.37,680C893.79,679.21 894.5,681.4 894.85,684C893.582,686.307 892.476,688.699 891.54,691.16C890.604,693.621 889.54,690.07 888.74,684.54C889.85,682.57 891.14,680.69 892.37,680Z" style="fill-rule:nonzero;"/>
            </g>
        </g>
    </g>
    <g transform="matrix(1,0,0,1,-88.27,-31.08)">
        <path d="M914.38,295.66C909.3,302.6 914.44,312.45 908.99,319.19C907.19,321.42 904.42,323.01 902.54,325.19C899.06,329.25 899.2,334.75 900.91,339.52C902.62,344.29 905.71,348.62 907.83,353.26C908.75,355.26 909.49,357.53 908.54,359.53C907.88,360.92 906.54,361.97 905.42,363.18C901.92,367.09 901.82,372.53 903.7,377.13C905.58,381.73 909.19,385.72 912.7,389.6C914.1,391.14 915.87,392.83 918.2,392.79C919.427,392.69 920.614,392.299 921.66,391.65C929.952,387.284 936.248,379.884 939.23,371C941.75,362.641 941.219,353.653 937.73,345.65C934.73,338.58 929.85,331.8 929.81,324.32C929.81,318.39 932.86,312.73 933.4,306.82C934.06,299.65 929.81,288.25 921.15,285.12C921.72,289.75 917,292.14 914.38,295.66Z" style="fill:rgb(185,107,107);fill-rule:nonzero;"/>
    </g>
    <g transform="matrix(1,0,0,1,-88.27,-31.08)">
        <path d="M914.38,295.66C909.3,302.6 914.44,312.45 908.99,319.19C907.19,321.42 904.42,323.01 902.54,325.19C899.06,329.25 899.2,334.75 900.91,339.52C902.62,344.29 905.71,348.62 907.83,353.26C908.75,355.26 909.49,357.53 908.54,359.53C907.88,360.92 906.54,361.97 905.42,363.18C901.92,367.09 901.82,372.53 903.7,377.13C905.58,381.73 909.19,385.72 912.7,389.6C914.1,391.14 915.87,392.83 918.2,392.79C919.427,392.69 920.614,392.299 921.66,391.65C929.952,387.284 936.248,379.884 939.23,371C941.75,362.641 941.219,353.653 937.73,345.65C934.73,338.58 929.85,331.8 929.81,324.32C929.81,318.39 932.86,312.73 933.4,306.82C934.06,299.65 929.81,288.25 921.15,285.12C921.72,289.75 917,292.14 914.38,295.66Z" style="fill-opacity:0.1;fill-rule:nonzero;"/>
    </g>
    <g transform="matrix(1,0,0,1,-88.27,-31.08)">
        <path d="M970.77,547.78C960.59,548.32 951.01,552.69 942.1,557.64C933.19,562.59 924.57,568.24 914.98,571.72" style="fill-opacity:0.1;fill-rule:nonzero;"/>
    </g>
    <g transform="matrix(1,0,0,1,-88.27,-31.08)">
        <path d="M964.44,571.76C954.371,572.726 944.981,577.29 938,584.61C935.53,587.23 933.4,590.17 930.82,592.68C926.865,596.523 921.983,599.279 916.65,600.68" style="fill-opacity:0.1;fill-rule:nonzero;"/>
    </g>
    <g transform="matrix(1,0,0,1,-88.27,-31.08)">
        <path d="M966.53,590C958.412,592.253 951.063,596.683 945.28,602.81C943.72,604.49 942.28,606.3 940.74,607.97C932.31,616.97 920.41,621.82 908.92,626.36" style="fill-opacity:0.1;fill-rule:nonzero;"/>
    </g>
    <g transform="matrix(1,0,0,1,-88.27,-31.08)">
        <path d="M965.66,336.91C965.888,345.044 966.589,353.158 967.76,361.21C968.7,366.95 970.04,372.06 971.96,374.33C977.55,380.98 944.68,389.9 944.68,389.9L925.27,374.9C925.27,374.9 940.66,360.73 933.49,346.9C926.32,333.07 965.66,336.91 965.66,336.91Z" style="fill:rgb(255,185,185);fill-rule:nonzero;"/>
    </g>
    <g transform="matrix(1,0,0,1,-88.27,-31.08)">
        <path d="M901.59,485.2L979.23,485.2C977.06,479.33 975.63,475.06 975.63,475.06L902.19,479.26L901.59,485.2Z" style="fill-opacity:0.1;fill-rule:nonzero;"/>
    </g>
    <g transform="matrix(1,0,0,1,-88.27,-31.08)">
        <path d="M896.59,483.8L979.59,483.8C977.26,475.46 979.59,467.73 982.92,461.8C985.247,457.634 988.175,453.833 991.61,450.52L992.18,450.01L1021.18,443.58L1022.74,443.24C1022.74,443.24 1022.97,390.55 1004.32,383.32C985.67,376.09 974.47,366.32 974.47,366.32L948.83,374.24L929.94,364.69C923.88,371.22 907.79,368.69 907.79,368.69C881.44,371.69 881.44,391.54 881.44,391.54C881.44,391.54 896.83,427.45 898,427.45C899.17,427.45 896.59,483.8 896.59,483.8Z" style="fill:rgb(103,100,126);fill-rule:nonzero;"/>
    </g>
    <g transform="matrix(1,0,0,1,-88.27,-31.08)">
        <path d="M925.25,450.3C925.25,450.3 908.32,446.55 902.56,439.99" style="fill-opacity:0.1;fill-rule:nonzero;"/>
    </g>
    <g transform="matrix(1,0,0,1,-88.27,-31.08)">
        <path d="M1010.6,430.64L991,446.73C991.142,448.002 991.359,449.264 991.65,450.51L992.22,450L1021.22,443.57L1010.6,430.64Z" style="fill-opacity:0.1;fill-rule:nonzero;"/>
    </g>
    <g transform="matrix(1,0,0,1,-88.27,-31.08)">
        <path d="M957.44,478.21C957.44,478.21 961.74,480.63 968.32,483.8L979.6,483.8C977.27,475.46 979.6,467.73 982.93,461.8L963,455.35C969.8,461.65 957.44,478.21 957.44,478.21Z" style="fill-opacity:0.1;fill-rule:nonzero;"/>
    </g>
    <g transform="matrix(1,0,0,1,-88.27,-31.08)">
        <path d="M893.09,385.18L881.43,391.47L870,420.38C870,420.38 858.11,452.09 859.27,460.49C859.27,460.49 855.08,480.3 862.54,483.8L882,492.6C882.234,492.706 882.487,492.761 882.744,492.761C883.731,492.761 884.544,491.948 884.544,490.961C884.544,490.664 884.47,490.372 884.33,490.11C881.56,484.86 878.52,476.66 883.33,472.11L877.73,460.46L898,427.38L904.75,416L893.09,385.18Z" style="fill:rgb(103,100,126);fill-rule:nonzero;"/>
    </g>
    <g transform="matrix(1,0,0,1,-88.27,-31.08)">
        <path d="M919,443.68C920,447.8 923.42,454.13 934.7,456.52L947.12,466.66L960.29,472.66L965.65,475.09L967.93,458.65L962.76,455.82L956.76,452.53C956.76,452.53 943.17,427.89 921.64,438.3C919.61,439.244 918.505,441.497 919,443.68Z" style="fill-opacity:0.1;fill-rule:nonzero;"/>
    </g>
    <g transform="matrix(1,0,0,1,-88.27,-31.08)">
        <path d="M919.71,442.28C920.71,446.4 924.13,452.73 935.41,455.12L947.83,465.27L961,471.27L966.36,473.7L968.64,457.26L963.47,454.44L957.47,451.14C957.47,451.14 943.88,426.51 922.35,436.91C920.324,437.853 919.22,440.1 919.71,442.28Z" style="fill:rgb(255,185,185);fill-rule:nonzero;"/>
    </g>
    <circle cx="855.7" cy="297.09" r="30.08" style="fill-opacity:0.1;"/>
    <circle cx="855.7" cy="296.39" r="30.08" style="fill:rgb(255,185,185);"/>
    <g transform="matrix(1,0,0,1,-88.27,-31.08)">
        <path d="M962.6,391.73L953.6,374.15C953.6,374.15 966.84,368.81 967.8,362.61C968.76,356.41 980.48,369.87 977.94,374.33C975.4,378.79 962.6,391.73 962.6,391.73Z" style="fill-opacity:0.1;fill-rule:nonzero;"/>
    </g>
    <g transform="matrix(1,0,0,1,-88.27,-31.08)">
        <path d="M962.6,390.33L953.6,372.75C953.6,372.75 966.84,367.41 967.8,361.21C968.76,355.01 980.48,368.48 977.94,372.93C975.4,377.38 962.6,390.33 962.6,390.33Z" style="fill:rgb(103,100,126);fill-rule:nonzero;"/>
    </g>
    <g transform="matrix(1,0,0,1,-88.27,-31.08)">
        <path d="M888.59,435.73L938.59,502.92C938.59,502.92 920.17,512.92 894.75,494.99L883.75,481.94L852.5,429.24L888.59,435.73Z" style="fill:rgb(246,248,251);fill-rule:nonzero;"/>
    </g>
    <g transform="matrix(1,0,0,1,-88.27,-31.08)">
        <path d="M878.75,472.26L883.3,472.14C883.3,472.14 911.1,445.14 917.92,458.8C924.74,472.46 900.61,485.2 900.61,485.2L893.27,489.2L883.65,492L877.53,483.78L878.75,472.26Z" style="fill:rgb(255,185,185);fill-rule:nonzero;"/>
    </g>
    <g transform="matrix(1,0,0,1,-88.27,-31.08)">
        <path d="M885.46,486.84C885.88,488.39 886.28,490.1 885.58,491.54C885.418,491.929 885.124,492.248 884.75,492.44C884.434,492.571 884.09,492.62 883.75,492.58C881.343,492.374 879.101,491.262 877.48,489.47C875.88,487.69 874.512,485.714 873.41,483.59C872.17,481.44 870.88,479.04 871.33,476.59C871.82,473.91 874.21,472.05 876.49,470.59C881.1,467.54 881.21,471.09 882.26,475.01L885.46,486.84Z" style="fill-opacity:0.1;fill-rule:nonzero;"/>
    </g>
    <g transform="matrix(1,0,0,1,-88.27,-31.08)">
        <path d="M884.76,486.84C885.18,488.39 885.58,490.1 884.88,491.54C884.718,491.929 884.424,492.248 884.05,492.44C883.734,492.571 883.39,492.62 883.05,492.58C880.643,492.374 878.401,491.262 876.78,489.47C875.18,487.69 873.812,485.714 872.71,483.59C871.47,481.44 870.18,479.04 870.63,476.59C871.12,473.91 873.51,472.05 875.79,470.59C880.4,467.54 880.51,471.09 881.56,475.01L884.76,486.84Z" style="fill:rgb(103,100,126);fill-rule:nonzero;"/>
    </g>
    <path d="M809.72,396.3L812.05,392.37L810.01,399.67L809.72,396.3Z" style="fill-opacity:0.1;fill-rule:nonzero;"/>
    <g transform="matrix(1,0,0,1,-88.27,-31.08)">
        <path d="M961,471.23L966.36,473.66L968.64,457.22L963.47,454.4C967,458.46 963.91,466 961,471.23Z" style="fill-opacity:0.1;fill-rule:nonzero;"/>
    </g>
    <g transform="matrix(1,0,0,1,-88.27,-31.08)">
        <path d="M982.51,452.15C982.51,452.15 965.2,453.2 957.86,448.48" style="fill-opacity:0.1;fill-rule:nonzero;"/>
    </g>
    <g>
        <g opacity="0.1">
            <g transform="matrix(1,0,0,1,-88.27,-31.08)">
                <path d="M980.36,463.19C982.693,459.025 985.624,455.224 989.06,451.91C989.884,451.392 990.739,450.924 991.62,450.51L1018.62,444.97L1020.18,444.63C1020.18,444.63 1020.42,391.94 1001.76,384.71C991.303,380.722 981.499,375.198 972.67,368.32L974.72,367.69C974.72,367.69 985.91,377.48 1004.56,384.69C1023.21,391.9 1023,444.63 1023,444.63L1020.2,444.63L992.56,449.92L991,451.41C987.534,454.876 984.563,458.803 982.17,463.08C978.523,469.86 977.693,477.812 979.86,485.2L977,485.2C974.7,476.86 977.07,469.13 980.36,463.19Z" style="fill-rule:nonzero;"/>
            </g>
            <g transform="matrix(1,0,0,1,-88.27,-31.08)">
                <path d="M906.67,370.2C907.12,370.14 907.55,370.07 908.01,370.02C909.903,370.287 911.809,370.444 913.72,370.49C911.366,370.555 909.011,370.458 906.67,370.2Z" style="fill-rule:nonzero;"/>
            </g>
            <g transform="matrix(1,0,0,1,-88.27,-31.08)">
                <path d="M946.25,375.61L929.17,367C929.524,366.721 929.859,366.417 930.17,366.09L947.99,375.09L946.25,375.61Z" style="fill-rule:nonzero;"/>
            </g>
        </g>
    </g>
    <g transform="matrix(1,0,0,1,-88.27,-31.08)">
        <path d="M1011.3,429.24L1022.73,443.24L1025.06,481.24C1025.06,481.24 1028.06,500.59 1005.94,495.93C983.82,491.27 958.14,476.81 958.14,476.81C958.14,476.81 970.5,460.25 963.74,453.96L995.45,464.22C995.45,464.22 1000.81,463.05 996.61,458.39C992.41,453.73 991.67,445.33 991.67,445.33L1011.3,429.24Z" style="fill:rgb(103,100,126);fill-rule:nonzero;"/>
    </g>
    <g transform="matrix(1,0,0,1,-88.27,-31.08)">
        <path d="M1016.43,469.35L1022.73,476.57C1019.43,475.561 1016.98,472.755 1016.43,469.35Z" style="fill-opacity:0.1;fill-rule:nonzero;"/>
    </g>
    <path d="M917.44,437.1L927.23,449.69L922.34,450.86L917.44,437.1Z" style="fill-opacity:0.1;fill-rule:nonzero;"/>
    <g transform="matrix(1,0,0,1,-88.27,-31.08)">
        <path d="M908.06,313.66C906.98,311.03 907.8,307.99 909.06,305.46C910.32,302.93 912.13,300.63 913.06,297.95C914.51,293.95 914.06,289.47 915.64,285.53C918.41,278.63 926.28,275.53 933.34,273.2C935.42,272.51 937.64,271.81 939.78,272.32C942.6,273 944.49,275.59 946.78,277.32C956.36,284.46 971.93,276.6 981.19,284.16C984.74,287.05 986.46,291.69 986.99,296.23C987.52,300.77 986.99,305.38 986.94,309.96C986.79,317.96 988.28,326.74 994.29,332.05C996.1,333.65 998.23,334.86 999.99,336.51C1001.75,338.16 1003.14,340.51 1002.83,342.88C1002.58,343.981 1002.25,345.061 1001.83,346.11C1000.63,350.29 1002.41,354.72 1004.58,358.49C1011.06,369.69 1022.47,378.92 1035.42,379.18C1034.55,385.71 1027.77,389.5 1021.75,392.18C1014.08,395.59 1006.02,398.94 997.64,398.51C989.26,398.08 980.52,392.72 979.03,384.51C978.52,381.68 978.59,378.21 976.13,376.72C974.65,375.82 972.73,376.05 971.13,375.37C968.82,374.37 967.67,371.83 966.91,369.43C965.349,364.497 964.51,359.364 964.42,354.19C964.32,348.06 965.14,341.37 961.66,336.32C958.44,331.65 952.72,329.32 949.01,324.98C945.59,320.98 941.86,316.2 936.25,315.44C928.71,314.35 912.65,324.9 908.06,313.66Z" style="fill-opacity:0.1;fill-rule:nonzero;"/>
    </g>
    <g transform="matrix(1,0,0,1,-88.27,-31.08)">
        <path d="M908.06,312.26C906.98,309.63 907.8,306.59 909.06,304.06C910.32,301.53 912.13,299.23 913.06,296.55C914.51,292.55 914.06,288.07 915.64,284.13C918.41,277.23 926.28,274.13 933.34,271.8C935.42,271.11 937.64,270.41 939.78,270.92C942.6,271.6 944.49,274.19 946.78,275.92C956.36,283.07 971.93,275.2 981.19,282.76C984.74,285.66 986.46,290.29 986.99,294.83C987.52,299.37 986.99,303.98 986.94,308.56C986.79,316.56 988.28,325.34 994.29,330.65C996.1,332.25 998.23,333.46 999.99,335.11C1001.75,336.76 1003.14,339.11 1002.83,341.48C1002.58,342.584 1002.25,343.667 1001.83,344.72C1000.63,348.89 1002.41,353.33 1004.58,357.09C1011.06,368.29 1022.47,377.52 1035.42,377.78C1034.55,384.31 1027.77,388.1 1021.75,390.78C1014.08,394.2 1006.02,397.54 997.64,397.11C989.26,396.68 980.52,391.32 979.03,383.06C978.52,380.23 978.59,376.76 976.13,375.27C974.65,374.37 972.73,374.6 971.13,373.92C968.82,372.92 967.67,370.38 966.91,367.98C965.349,363.047 964.51,357.914 964.42,352.74C964.32,346.61 965.14,339.92 961.66,334.87C958.44,330.2 952.72,327.87 949.01,323.53C945.59,319.53 941.86,314.75 936.25,313.99C928.71,313 912.65,323.5 908.06,312.26Z" style="fill:rgb(185,107,107);fill-rule:nonzero;"/>
    </g>
    <g transform="matrix(1,0,0,1,-88.27,-31.08)">
        <path d="M929.38,389.55L946.62,375.55C946.62,375.55 934.82,369.15 933.41,363.69C932,358.23 922.56,366.28 923.52,371.18C924.48,376.08 929.38,389.55 929.38,389.55Z" style="fill-opacity:0.1;fill-rule:nonzero;"/>
    </g>
    <g transform="matrix(1,0,0,1,-88.27,-31.08)">
        <path d="M930.08,387.45L947.32,373.45C947.32,373.45 935.52,367.05 934.11,361.59C932.7,356.13 923.26,364.18 924.22,369.08C925.18,373.98 930.08,387.45 930.08,387.45Z" style="fill:rgb(103,100,126);fill-rule:nonzero;"/>
    </g>
    <circle cx="859.72" cy="354.09" r="1.37" style="fill-opacity:0.1;"/>
    <circle cx="859.72" cy="361.71" r="1.37" style="fill-opacity:0.1;"/>
    <circle cx="859.72" cy="369.32" r="1.37" style="fill-opacity:0.1;"/>
    <g>
        <g opacity="0.1">
            <g transform="matrix(1,0,0,1,-88.27,-31.08)">
                <path d="M915,292.83C916.36,289.08 916.07,284.88 917.34,281.11C916.758,281.946 916.271,282.845 915.89,283.79C914.31,287.73 914.75,292.23 913.31,296.22C913.31,296.29 913.24,296.37 913.21,296.45C913.916,295.3 914.515,294.089 915,292.83Z" style="fill-rule:nonzero;"/>
            </g>
            <g transform="matrix(1,0,0,1,-88.27,-31.08)">
                <path d="M1023.79,387.06C1016.12,390.48 1008.06,393.82 999.67,393.39C991.28,392.96 982.56,387.6 981.07,379.34C980.56,376.51 980.63,373.04 978.17,371.55C976.69,370.65 974.77,370.88 973.17,370.2C970.85,369.2 969.71,366.66 968.95,364.26C967.387,359.32 966.548,354.18 966.46,349C966.36,342.87 967.17,336.18 963.7,331.13C960.48,326.46 954.76,324.13 951.05,319.79C947.62,315.79 943.9,311.01 938.28,310.25C930.58,309.25 914.51,319.75 909.93,308.51C909.196,306.386 909.3,304.06 910.22,302.01C909.89,302.57 909.57,303.13 909.28,303.7C907.98,306.23 907.16,309.27 908.28,311.9C912.87,323.14 928.93,312.59 936.64,313.64C942.25,314.4 945.98,319.21 949.41,323.18C953.12,327.48 958.83,329.85 962.05,334.53C965.53,339.53 964.72,346.27 964.82,352.39C964.902,357.567 965.738,362.704 967.3,367.64C968.06,370.03 969.21,372.64 971.52,373.58C973.12,374.25 975.04,374.03 976.52,374.93C978.97,376.41 978.91,379.93 979.41,382.71C980.9,390.97 989.64,396.34 998.02,396.77C1006.4,397.2 1014.47,393.85 1022.13,390.43C1027.65,387.98 1033.8,384.57 1035.45,378.99C1032.77,382.66 1028.09,385.15 1023.79,387.06Z" style="fill-rule:nonzero;"/>
            </g>
        </g>
    </g>
    <defs>
        <linearGradient id="_Linear1" x1="0" y1="0" x2="1" y2="0" gradientUnits="userSpaceOnUse" gradientTransform="matrix(1.111e-14,-181.44,181.44,1.111e-14,352.43,317.15)"><stop offset="0" style="stop-color:rgb(128,128,128);stop-opacity:0.247059"/><stop offset="0.54" style="stop-color:rgb(128,128,128);stop-opacity:0.117647"/><stop offset="1" style="stop-color:rgb(128,128,128);stop-opacity:0.0980392"/></linearGradient>
        <linearGradient id="_Linear2" x1="0" y1="0" x2="1" y2="0" gradientUnits="userSpaceOnUse" gradientTransform="matrix(1.04505e-14,-170.67,170.67,1.04505e-14,569.83,551.49)"><stop offset="0" style="stop-color:rgb(128,128,128);stop-opacity:0.247059"/><stop offset="0.54" style="stop-color:rgb(128,128,128);stop-opacity:0.117647"/><stop offset="1" style="stop-color:rgb(128,128,128);stop-opacity:0.0980392"/></linearGradient>
        <linearGradient id="_Linear3" x1="0" y1="0" x2="1" y2="0" gradientUnits="userSpaceOnUse" gradientTransform="matrix(1.10218e-17,-0.18,0.18,1.10218e-17,171.5,319.2)"><stop offset="0" style="stop-color:rgb(128,128,128);stop-opacity:0.0247059"/><stop offset="0.54" style="stop-color:rgb(128,128,128);stop-opacity:0.0117647"/><stop offset="1" style="stop-color:rgb(128,128,128);stop-opacity:0.00980392"/></linearGradient>
        <linearGradient id="_Linear4" x1="0" y1="0" x2="1" y2="0" gradientUnits="userSpaceOnUse" gradientTransform="matrix(3.69531e-14,-603.49,603.49,3.69531e-14,228.01,853.75)"><stop offset="0" style="stop-color:rgb(128,128,128);stop-opacity:0.247059"/><stop offset="0.54" style="stop-color:rgb(128,128,128);stop-opacity:0.117647"/><stop offset="1" style="stop-color:rgb(128,128,128);stop-opacity:0.0980392"/></linearGradient>
        <linearGradient id="_Linear5" x1="0" y1="0" x2="1" y2="0" gradientUnits="userSpaceOnUse" gradientTransform="matrix(3.56078e-14,-581.52,581.52,3.56078e-14,944.05,849.94)"><stop offset="0" style="stop-color:rgb(128,128,128);stop-opacity:0.247059"/><stop offset="0.54" style="stop-color:rgb(128,128,128);stop-opacity:0.117647"/><stop offset="1" style="stop-color:rgb(128,128,128);stop-opacity:0.0980392"/></linearGradient>
    </defs>
</svg>
