<?xml version="1.0" encoding="UTF-8" standalone="no"?><!DOCTYPE svg PUBLIC "-//W3C//DTD SVG 1.1//EN" "http://www.w3.org/Graphics/SVG/1.1/DTD/svg11.dtd"><svg width="100%" height="100%" viewBox="0 0 1121 863" version="1.1" xmlns="http://www.w3.org/2000/svg" xmlns:xlink="http://www.w3.org/1999/xlink" xml:space="preserve" xmlns:serif="http://www.serif.com/" style="fill-rule:evenodd;clip-rule:evenodd;stroke-miterlimit:10;"><path d="M1050,488.26c-41.29,62.11 -30.84,148.44 -10.05,216.82c7,22.89 14.91,47.08 10.21,72.38c-5.75,30.94 -29.19,54.77 -53.22,68.11c-43.79,24.33 -94.62,22.33 -132.33,-5.19c-32.59,-23.79 -54.74,-64.38 -88,-87c-55.59,-37.72 -129.82,-17.54 -193.92,14.88c-45.35,22.91 -95.14,52.13 -138.12,33.8c-30.24,-12.9 -49.84,-47.64 -59.58,-85.15c-4.7,-18.11 -7.78,-37.84 -17.8,-51.81c-6,-8.3 -14,-14 -22.29,-18.63c-75.71,-42.74 -175.6,-11.15 -248.85,-59.21c-49.43,-32.4 -78.84,-97.54 -89.82,-166.69c-10.98,-69.15 -5.57,-142.7 1.77,-215.08c5.21,-51.43 12.68,-106.45 41.37,-147.68c30.35,-43.61 79.58,-62.18 123,-56.95c43.42,5.23 81.6,31.13 114.83,62.4c41.53,39 79.37,88.46 132.1,102c35.91,9.25 74.61,0.57 112.35,-4c63.1,-7.55 125.63,-3.35 187.74,1.64c59.47,4.78 119.32,10.39 175.17,30.77c39.52,14.42 70.34,43.14 107.39,62.24c24.15,12.45 51.05,14.63 73.68,31c27.88,20.15 52.52,56.69 42.83,101.84c-9.21,42.99 -46.55,66.51 -68.46,99.51Z" style="fill:#9dc5bf;fill-opacity:0.1;fill-rule:nonzero;"/><rect x="880.8" y="256.42" width="40.89" height="61.9" style="fill:#9dc5bf;fill-opacity:0.1;"/><rect x="884.77" y="262.44" width="32.94" height="49.86" style="fill:#9dc5bf;fill-opacity:0.1;"/><rect x="797.8" y="213.42" width="62.8" height="61.9" style="fill:#9dc5bf;fill-opacity:0.1;"/><rect x="803.9" y="219.44" width="50.59" height="49.86" style="fill:#9dc5bf;fill-opacity:0.1;"/><rect x="64.62" y="121.32" width="191.95" height="5.11" style="fill:#9dc5bf;fill-opacity:0.1;"/><rect x="64.62" y="146.31" width="191.95" height="5.11" style="fill:#9dc5bf;fill-opacity:0.1;"/><rect x="388.43" y="452.63" width="19.61" height="219.14" style="fill:#d6d6e3;"/><path d="M980.84,475.64l0,-202.14c0.005,-11.654 9.596,-21.24 21.25,-21.24c11.639,0.022 21.205,9.601 21.21,21.24l0,244.64c0,11.657 -9.593,21.25 -21.25,21.25l-131.61,0c-11.657,0 -21.25,-9.593 -21.25,-21.25c0,-11.657 9.593,-21.25 21.25,-21.25l89.15,0c11.657,0 21.25,-9.593 21.25,-21.25Z" style="fill:#aebee1;fill-rule:nonzero;"/><path d="M980.84,475.64l0,-202.14c0.005,-11.654 9.596,-21.24 21.25,-21.24c11.639,0.022 21.205,9.601 21.21,21.24l0,244.64c0,11.657 -9.593,21.25 -21.25,21.25l-131.61,0c-11.657,0 -21.25,-9.593 -21.25,-21.25c0,-11.657 9.593,-21.25 21.25,-21.25l89.15,0c11.657,0 21.25,-9.593 21.25,-21.25Z" style="fill:#535461;fill-rule:nonzero;"/><path d="M849.22,517c0.602,-11.212 9.992,-20.11 21.22,-20.11l89.15,0c11.657,0 21.25,-9.593 21.25,-21.25l0,-202.14c-0.008,-11.278 8.965,-20.699 20.23,-21.24l0,264.74l-151.85,0Z" style="fill:#d6d6e3;fill-rule:nonzero;"/><path d="M192.5,482.46l0,-202.14c0,-11.639 -9.562,-21.223 -21.2,-21.25c-11.657,0 -21.25,9.593 -21.25,21.25l0,244.64c0,0.017 0,0.033 0,0.05c0,11.657 9.593,21.25 21.25,21.25l131.6,0c11.657,0 21.25,-9.593 21.25,-21.25c0,-11.657 -9.593,-21.25 -21.25,-21.25l-89.14,0c-0.003,0 -0.007,0 -0.01,0c-11.657,0 -21.25,-9.593 -21.25,-21.25c0,-0.017 0,-0.033 0,-0.05Z" style="fill:#aebee1;fill-rule:nonzero;"/><path d="M192.5,482.46l0,-202.14c0,-11.639 -9.562,-21.223 -21.2,-21.25c-11.657,0 -21.25,9.593 -21.25,21.25l0,244.64c0,0.017 0,0.033 0,0.05c0,11.657 9.593,21.25 21.25,21.25l131.6,0c11.657,0 21.25,-9.593 21.25,-21.25c0,-11.657 -9.593,-21.25 -21.25,-21.25l-89.14,0c-0.003,0 -0.007,0 -0.01,0c-11.657,0 -21.25,-9.593 -21.25,-21.25c0,-0.017 0,-0.033 0,-0.05Z" style="fill:#535461;fill-rule:nonzero;"/><path d="M324.12,523.82c-0.602,-11.212 -9.992,-20.11 -21.22,-20.11l-89.14,0c-0.003,0 -0.007,0 -0.01,0c-11.657,0 -21.25,-9.593 -21.25,-21.25c0,0 0,0 0,0l0,-202.14c-0.002,-11.26 -8.954,-20.664 -20.2,-21.22l0,264.72l151.82,0Z" style="fill:#d6d6e3;fill-rule:nonzero;"/><rect x="776.4" y="452.63" width="19.61" height="224.25" style="fill:#d6d6e3;"/><rect x="388.43" y="452.63" width="19.61" height="16.2" style="fill-opacity:0.1;"/><rect x="776.4" y="452.63" width="19.61" height="16.2" style="fill-opacity:0.1;"/><path d="M458.47,319.18c-0.313,3.453 -0.71,6.953 -1.19,10.5l-2.77,0l0,-10.5l3.96,0Z" style="fill-opacity:0.1;fill-rule:nonzero;"/><path d="M538.82,428.26c0.06,3.55 -2.5,6.46 -5.67,6.46l-59.85,0l0,-6.24l49.8,0c2.15,0 3.49,-2.6 2.41,-4.68l-45.16,-91.85c-0.65,-1.347 -2.004,-2.222 -3.5,-2.26l-22.34,0l0,-10.5l28.21,0c1.046,0.026 1.994,0.638 2.45,1.58l51.77,100c1.193,2.319 1.836,4.882 1.88,7.49Z" style="fill:#535461;fill-rule:nonzero;"/><path d="M428.9,411.6l-0.82,1.38l-7.67,-5.12l23.73,-182.47l6.11,0c0,0 0.25,0.84 0.66,2.44c4.09,15.77 24.18,105.08 -22.01,183.77Z" style="fill:#535461;fill-rule:nonzero;"/><path d="M450.9,227.83l-22,183.77l-0.82,1.38l-7.67,-5.12l23.73,-182.47l6.11,0c0,0 0.24,0.87 0.65,2.44Z" style="fill-opacity:0.1;fill-rule:nonzero;"/><path d="M435.981,223.502l-22.511,187.947l14.397,1.724l22.511,-187.947l-14.397,-1.724Z" style="fill:#d6d6e3;"/><path d="M364.13,428.33c-0.005,0.936 -0.774,1.705 -1.71,1.71l-2.56,0c-0.938,0 -1.71,-0.772 -1.71,-1.71c-0.008,-0.066 -0.008,-0.134 0,-0.2c0.105,-0.85 0.834,-1.496 1.69,-1.5l2.56,0c0.779,0.008 1.46,0.545 1.65,1.3c0.044,0.129 0.071,0.264 0.08,0.4Z" style="fill:#e3edf9;fill-rule:nonzero;"/><path d="M371.8,428.33c-0.005,0.936 -0.774,1.705 -1.71,1.71l-2.56,0c-0.938,0 -1.71,-0.772 -1.71,-1.71c0.001,-0.159 0.025,-0.317 0.07,-0.47c0.076,-0.277 0.224,-0.529 0.43,-0.73c0.316,-0.322 0.749,-0.502 1.2,-0.5l2.56,0c0.673,-0.003 1.288,0.389 1.57,1c0.097,0.221 0.148,0.459 0.15,0.7Z" style="fill:#e3edf9;fill-rule:nonzero;"/><path d="M378.62,428.33c-0.005,0.936 -0.774,1.705 -1.71,1.71l-2.56,0c-0.938,0 -1.71,-0.772 -1.71,-1.71c-0.004,-0.245 0.047,-0.488 0.15,-0.71c0.282,-0.601 0.886,-0.99 1.55,-1l2.56,0c0.003,0 0.007,0 0.01,0c0.933,0 1.7,0.767 1.7,1.7c0,0.003 0,0.007 0,0.01l0.01,0Z" style="fill:#e3edf9;fill-rule:nonzero;"/><path d="M386.3,428.33c-0.005,0.936 -0.774,1.705 -1.71,1.71l-2.56,0c-0.938,-0.001 -1.709,-0.772 -1.709,-1.71c0,-0.351 0.108,-0.693 0.309,-0.98l0.2,-0.22c0.316,-0.322 0.749,-0.502 1.2,-0.5l2.56,0c0.471,0.006 0.92,0.205 1.24,0.55c0.3,0.307 0.469,0.72 0.47,1.15Z" style="fill:#e3edf9;fill-rule:nonzero;"/><path d="M364.08,427.92c0.035,0.134 0.051,0.272 0.05,0.41c-0.005,0.936 -0.774,1.705 -1.71,1.71l-2.56,0c-0.938,0 -1.71,-0.772 -1.71,-1.71c-0.008,-0.066 -0.008,-0.134 0,-0.2l5.93,-0.21Z" style="fill-opacity:0.1;fill-rule:nonzero;"/><path d="M371.66,427.65c0.09,0.212 0.138,0.44 0.14,0.67c-0.005,0.936 -0.774,1.705 -1.71,1.71l-2.56,0c-0.938,0 -1.71,-0.772 -1.71,-1.71c0.001,-0.159 0.025,-0.317 0.07,-0.47l5.77,-0.2Z" style="fill-opacity:0.1;fill-rule:nonzero;"/><path d="M378.37,427.42c0.168,0.27 0.258,0.582 0.26,0.9c-0.005,0.936 -0.774,1.705 -1.71,1.71l-2.56,0c-0.938,0 -1.71,-0.772 -1.71,-1.71c-0.004,-0.245 0.047,-0.488 0.15,-0.71l5.57,-0.19Z" style="fill-opacity:0.1;fill-rule:nonzero;"/><path d="M386.3,428.33c-0.005,0.936 -0.774,1.705 -1.71,1.71l-2.56,0c-0.938,-0.001 -1.709,-0.772 -1.709,-1.71c0,-0.351 0.108,-0.693 0.309,-0.98l5.2,-0.18c0.303,0.31 0.472,0.727 0.47,1.16Z" style="fill-opacity:0.1;fill-rule:nonzero;"/><path d="M401.64,435.15l-49.45,0l0,-2.25c-0.001,-2.064 1.657,-3.78 3.72,-3.85l39.66,-1.37c0.067,-0.002 0.133,-0.003 0.2,-0.003c3.223,0 5.876,2.65 5.88,5.873l-0.01,1.6Z" style="fill:#d6d6e3;fill-rule:nonzero;"/><path d="M645.61,428.26c-0.06,3.55 2.5,6.46 5.67,6.46l59.88,0l0,-6.24l-49.86,0c-2.15,0 -3.49,-2.6 -2.41,-4.68l45.16,-91.85c0.65,-1.347 2.004,-2.222 3.5,-2.26l22.35,0l0,-10.5l-28.19,0c-1.03,0.039 -1.958,0.644 -2.41,1.57l-51.77,100c-1.208,2.319 -1.865,4.886 -1.92,7.5Z" style="fill:#535461;fill-rule:nonzero;"/><path d="M755.54,411.6l0.82,1.38l7.67,-5.12l-23.73,-182.47l-6.11,0c0,0 -0.25,0.84 -0.66,2.44c-4.1,15.77 -24.23,105.08 22.01,183.77Z" style="fill:#535461;fill-rule:nonzero;"/><path d="M733.53,227.83l22,183.77l0.82,1.38l7.67,-5.12l-23.72,-182.47l-6.11,0c0,0 -0.25,0.87 -0.66,2.44Z" style="fill-opacity:0.1;fill-rule:nonzero;"/><path d="M748.467,223.484l-14.397,1.724l22.511,187.947l14.397,-1.725l-22.511,-187.946Z" style="fill:#d6d6e3;"/><path d="M820.3,428.33c0.005,0.936 0.774,1.705 1.71,1.71l2.56,0c0.938,0 1.71,-0.772 1.71,-1.71c0.008,-0.066 0.008,-0.134 0,-0.2c-0.105,-0.85 -0.834,-1.496 -1.69,-1.5l-2.56,0c-0.779,0.008 -1.46,0.545 -1.65,1.3c-0.044,0.129 -0.071,0.264 -0.08,0.4Z" style="fill:#e3edf9;fill-rule:nonzero;"/><path d="M812.63,428.33c0.005,0.936 0.774,1.705 1.71,1.71l2.56,0c0.938,0 1.71,-0.772 1.71,-1.71c-0.001,-0.159 -0.025,-0.317 -0.07,-0.47c-0.076,-0.277 -0.224,-0.529 -0.43,-0.73c-0.316,-0.322 -0.749,-0.502 -1.2,-0.5l-2.61,0c-0.673,-0.003 -1.288,0.389 -1.57,1c-0.08,0.224 -0.114,0.462 -0.1,0.7Z" style="fill:#e3edf9;fill-rule:nonzero;"/><path d="M805.81,428.33c0.005,0.936 0.774,1.705 1.71,1.71l2.56,0c0.938,0 1.71,-0.772 1.71,-1.71c0.004,-0.245 -0.047,-0.488 -0.15,-0.71c-0.282,-0.601 -0.886,-0.99 -1.55,-1l-2.56,0c-0.003,0 -0.007,0 -0.01,0c-0.933,0 -1.7,0.767 -1.7,1.7c0,0.003 0,0.007 0,0.01l-0.01,0Z" style="fill:#e3edf9;fill-rule:nonzero;"/><path d="M798.13,428.33c0.005,0.936 0.774,1.705 1.71,1.71l2.56,0c0.938,-0.001 1.709,-0.772 1.709,-1.71c0,-0.351 -0.108,-0.693 -0.309,-0.98l-0.2,-0.22c-0.316,-0.322 -0.749,-0.502 -1.2,-0.5l-2.56,0c-0.471,0.006 -0.92,0.205 -1.24,0.55c-0.3,0.307 -0.469,0.72 -0.47,1.15Z" style="fill:#e3edf9;fill-rule:nonzero;"/><path d="M820.35,427.92c-0.035,0.134 -0.051,0.272 -0.05,0.41c0.005,0.936 0.774,1.705 1.71,1.71l2.56,0c0.938,0 1.71,-0.772 1.71,-1.71c0.008,-0.066 0.008,-0.134 0,-0.2l-5.93,-0.21Z" style="fill-opacity:0.1;fill-rule:nonzero;"/><path d="M812.77,427.65c-0.09,0.212 -0.138,0.44 -0.14,0.67c0.005,0.936 0.774,1.705 1.71,1.71l2.56,0c0.938,0 1.71,-0.772 1.71,-1.71c-0.001,-0.159 -0.025,-0.317 -0.07,-0.47l-5.77,-0.2Z" style="fill-opacity:0.1;fill-rule:nonzero;"/><path d="M806.06,427.42c-0.168,0.27 -0.258,0.582 -0.26,0.9c0.005,0.936 0.774,1.705 1.71,1.71l2.56,0c0.938,0 1.71,-0.772 1.71,-1.71c0.004,-0.245 -0.047,-0.488 -0.15,-0.71l-5.57,-0.19Z" style="fill-opacity:0.1;fill-rule:nonzero;"/><path d="M798.13,428.33c0.005,0.936 0.774,1.705 1.71,1.71l2.56,0c0.938,-0.001 1.709,-0.772 1.709,-1.71c0,-0.351 -0.108,-0.693 -0.309,-0.98l-5.2,-0.18c-0.303,0.31 -0.472,0.727 -0.47,1.16Z" style="fill-opacity:0.1;fill-rule:nonzero;"/><path d="M782.79,435.15l49.45,0l0,-2.25c0.001,-2.064 -1.657,-3.78 -3.72,-3.85l-39.66,-1.37c-0.067,-0.002 -0.133,-0.003 -0.2,-0.003c-3.223,0 -5.876,2.65 -5.88,5.873l0.01,1.6Z" style="fill:#d6d6e3;fill-rule:nonzero;"/><path d="M989.77,462.26c23.07,-39.13 14.71,-118.06 15.64,-119.57c0.83,-1.33 -2.35,-38.5 -23.55,-47.58c-3.83,-7.59 -7.6,-16.14 -7.6,-16.14c-0.371,0.348 -0.78,0.654 -1.22,0.91c-0.167,-0.453 -0.33,-0.913 -0.49,-1.38c-0.27,-0.79 -0.52,-1.6 -0.77,-2.41c0.594,0.19 1.198,0.343 1.81,0.46c1.616,0.395 3.319,0.243 4.84,-0.43c0.519,-0.278 0.988,-0.64 1.39,-1.07c1.67,-1.11 2.59,-3.11 3.37,-5l6.17,-14.78c2.78,-6.67 5.58,-13.38 7.06,-20.45c2.202,-10.638 1.349,-21.686 -2.46,-31.86c-1.46,-3.88 -3.48,-7.76 -6.91,-10.08c-6.87,-4.66 -16.43,-1.44 -24.28,-4.17c-2.58,-0.9 -4.91,-2.42 -7.49,-3.34c-5.57,-2 -11.86,-0.93 -17.22,1.56c-5.36,2.49 -9.7,6.45 -14.39,10c-2.31,1.77 -6,3.6 -8.72,6c-2.64,2.06 -4.67,4.55 -4.28,7.83c0.44,3.75 4.39,6 8.07,6.88c0.61,0.14 1.24,0.25 1.86,0.36c-6.648,6.735 -10.38,15.827 -10.38,25.29c0,15.889 10.519,29.986 25.75,34.51c1.877,3.524 3.501,7.176 4.86,10.93c0.18,0.513 0.357,1.03 0.53,1.55c-6.06,1.72 -10.8,3.15 -11.75,3.94c-2.87,2.38 3.14,23.22 3.14,23.22c-1.53,1.94 -3.09,4.15 -4.67,6.52c-11.981,18.198 -19.568,38.936 -22.16,60.57c-1,7.91 -2.3,16 -3.95,23.69l-71.67,-14.37l-0.15,1.77l-1.71,-0.42l-5.38,-1.33l-0.21,1.21l-0.82,-0.39c-13.33,-6.25 -35.79,-14.23 -51,-6c-16.05,8.64 18.59,20.12 40.82,26.23c-7.37,0.36 -14.42,2.13 -20,6.27c-16.12,12.08 29.47,18.37 51,20.6l0.87,0.09l0,0.46l7.46,0.69l1.75,0.16l0.17,2.66c0,0 10.68,1.75 24.95,3.87c-16.29,4.07 -36.42,6.89 -50.4,8.54c-14.82,1.74 -27.44,12.06 -31.42,26.45c-1.286,4.126 -1.411,8.528 -0.36,12.72c4.16,14.53 -0.92,121.42 -2.07,144.44l-26.35,15.17c0,0 -41,5 -13.69,14.61c2.461,0.84 4.977,1.508 7.53,2c-3.6,2.32 -3.29,5.35 7.32,9.07c27.33,9.58 90.86,-0.42 90.86,-0.42c0,0 -1.39,-11.26 -3.65,-20.62l0.7,0.06c0,0 -6.56,-24.41 3.39,-36.72c9.95,-12.31 -1.67,-106 -1.67,-106c0,0 17.42,-7.21 69.49,-7.68c42,10.78 62.47,-27.81 62.18,-47.76c-0.09,-0.45 -0.11,-0.91 -0.14,-1.32Z" style="fill:url(#_Linear1);fill-rule:nonzero;"/><path d="M834.55,401.62l-4.45,18c0,0 -4,-0.9 -10,-2.44c-20.32,-5.26 -63.18,-17.89 -46,-27.16c14.81,-8 36.62,-0.22 49.57,5.85c4.74,2.23 8.3,4.23 9.89,5.17c0.67,0.38 0.99,0.58 0.99,0.58Z" style="fill:#f8b9bf;fill-rule:nonzero;"/><path d="M833.3,406.7l-3.2,13c0,0 -4,-0.9 -10,-2.44l3.61,-21.31c4.74,2.23 8.3,4.23 9.89,5.17l-0.3,5.58Z" style="fill-opacity:0.1;fill-rule:nonzero;"/><path d="M833.31,420.93l-12.42,-3.07l3.86,-22.76l9.93,2.45l-1.37,23.38Z" style="fill:#d9dfe8;fill-rule:nonzero;"/><path d="M833.31,420.93l-5.36,-1.32l2.02,-23.22l4.71,1.16l-1.37,23.38Z" style="fill-opacity:0.1;fill-rule:nonzero;"/><path d="M953.15,326.66c0,0 -23.85,-13.78 -34.45,25.75c-10.6,39.53 -11.6,57.74 -11.6,57.74l-75.32,-15.06l-2.39,27.51c0,0 80.53,26 90.66,24.11c10.13,-1.89 43,-57 43,-57c0,0 29.88,-42.71 -9.9,-63.05Z" style="fill:#9dc5bf;fill-rule:nonzero;"/><g><g opacity="0.1"><path d="M834.55,401.62l-4.45,18c0,0 -4,-0.9 -10,-2.44c-20.32,-5.26 -63.18,-17.89 -46,-27.16c14.81,-8 36.62,-0.22 49.57,5.85c4.74,2.23 8.3,4.23 9.89,5.17c0.67,0.38 0.99,0.58 0.99,0.58Z" style="fill-rule:nonzero;"/><path d="M833.3,406.7l-3.2,13c0,0 -4,-0.9 -10,-2.44l3.61,-21.31c4.74,2.23 8.3,4.23 9.89,5.17l-0.3,5.58Z" style="fill-opacity:0.1;fill-rule:nonzero;"/><path d="M833.31,420.93l-12.42,-3.07l3.86,-22.76l9.93,2.45l-1.37,23.38Z" style="fill-rule:nonzero;"/><path d="M833.31,420.93l-5.36,-1.32l2.02,-23.22l4.71,1.16l-1.37,23.38Z" style="fill-opacity:0.1;fill-rule:nonzero;"/><path d="M953.15,327.66c0,0 -23.85,-13.78 -34.45,25.75c-10.6,39.53 -11.6,57.74 -11.6,57.74l-75.32,-15.06l-2.39,27.51c0,0 80.53,26 90.66,24.11c10.13,-1.89 43,-57 43,-57c0,0 29.88,-42.71 -9.9,-63.05Z" style="fill-rule:nonzero;"/></g></g><path d="M801.45,632.96l-30.75,17.71c0,0 -39.84,4.88 -13.3,14.18c26.54,9.3 88.24,-0.41 88.24,-0.41c0,0 -3.43,-27.72 -8.21,-31.59c-4.78,-3.87 -35.98,0.11 -35.98,0.11Z" style="fill:#68739d;fill-rule:nonzero;"/><path d="M921.3,434.26c0,0 -15.3,8 -42.48,14.91c-15.93,4 -35.87,6.84 -49.65,8.46c-14.398,1.567 -26.488,11.72 -30.52,25.63c-1.258,4.022 -1.379,8.314 -0.35,12.4c4.53,15.83 -2.23,144.51 -2.23,144.51l46.7,4.32c0,0 -6.37,-23.71 3.3,-35.66c9.67,-11.95 -1.62,-102.91 -1.62,-102.91c0,0 16.92,-7 67.48,-7.46c46.84,12 66.14,-39.27 58.91,-53.64c-7.23,-14.37 -49.54,-10.56 -49.54,-10.56Z" style="fill:#6394e2;fill-rule:nonzero;"/><g><g opacity="0.1"><path d="M801.45,632.96l-30.75,17.71c0,0 -39.84,4.88 -13.3,14.18c26.54,9.3 88.24,-0.41 88.24,-0.41c0,0 -3.43,-27.72 -8.21,-31.59c-4.78,-3.87 -35.98,0.11 -35.98,0.11Z" style="fill-rule:nonzero;"/><path d="M921.3,434.26c0,0 -15.3,8 -42.48,14.91c-15.93,4 -35.87,6.84 -49.65,8.46c-14.398,1.567 -26.488,11.72 -30.52,25.63c-1.258,4.022 -1.379,8.314 -0.35,12.4c4.53,15.83 -2.23,144.51 -2.23,144.51l46.7,4.32c0,0 -6.37,-23.71 3.3,-35.66c9.67,-11.95 -1.62,-102.91 -1.62,-102.91c0,0 16.92,-7 67.48,-7.46c46.84,12 66.14,-39.27 58.91,-53.64c-7.23,-14.37 -49.54,-10.56 -49.54,-10.56Z" style="fill-rule:nonzero;"/></g></g><path d="M815.87,643.71l-30.75,17.71c0,0 -39.82,4.84 -13.3,14.18c26.52,9.34 88.24,-0.41 88.24,-0.41c0,0 -3.43,-27.72 -8.21,-31.59c-4.78,-3.87 -35.98,0.11 -35.98,0.11Z" style="fill:#68739d;fill-rule:nonzero;"/><path d="M926.3,509.21c-50.56,0.46 -67.48,7.46 -67.48,7.46c0,0 11.29,91 1.62,102.91c-9.67,11.91 -3.3,35.66 -3.3,35.66l-46.7,-4.32c0,0 0.08,-1.52 0.21,-4.24c1.12,-22.36 6.05,-126.16 2,-140.27c-1.022,-4.073 -0.901,-8.351 0.35,-12.36c4.013,-13.929 16.101,-24.108 30.51,-25.69c13.77,-1.61 33.71,-4.41 49.64,-8.46l0.78,-0.2c26.7,-6.86 41.7,-14.71 41.7,-14.71c0,0 42.31,-3.8 49.54,10.57c1.02,2.279 1.525,4.754 1.48,7.25c0.36,19.39 -19.54,56.87 -60.35,46.4Z" style="fill:#6394e2;fill-rule:nonzero;"/><path d="M855.87,424.05l-1.71,18.5c0,0 -4.11,-0.29 -10.22,-0.93c-20.87,-2.17 -65.14,-8.27 -49.49,-20c13.46,-10.08 36.18,-5.68 49.89,-1.6c5,1.5 8.84,2.95 10.55,3.64c0.63,0.24 0.98,0.39 0.98,0.39Z" style="fill:#f8b9bf;fill-rule:nonzero;"/><path d="M980.08,303.1c0,0 -6.26,4.9 -13.91,10.28c-8.39,1.9 -18.13,3.47 -25.15,4.49c2.51,-8 1,-17 -1.83,-24.89c-3.079,-8.245 -7.303,-16.014 -12.55,-23.08l42.32,-13.21c-3.32,8.41 -1.82,18 1,26.34c2.49,7.1 5.892,13.847 10.12,20.07Z" style="fill:#f8b9bf;fill-rule:nonzero;"/><path d="M855.39,429.26l-1.23,13.29c0,0 -4.11,-0.29 -10.22,-0.93l0.4,-21.61c5,1.5 8.84,2.95 10.55,3.64l0.5,5.61Z" style="fill-opacity:0.1;fill-rule:nonzero;"/><path d="M857.52,443.33l-12.74,-1.18l0.42,-23.08l10.19,0.94l2.13,23.32Z" style="fill:#d9dfe8;fill-rule:nonzero;"/><path d="M980.08,303.1c0,0 -6.26,4.9 -13.91,10.28c-8.39,1.9 -18.13,3.47 -25.15,4.49c2.51,-8 1,-17 -1.83,-24.89c10.34,-3 25.13,-6.88 30.78,-10c2.483,7.117 5.881,13.88 10.11,20.12Z" style="fill-opacity:0.1;fill-rule:nonzero;"/><path d="M971.62,283.48c0,0 7.08,16.07 11.54,23.33c4.46,7.26 -51.82,14 -51.82,14c0,0 -5.84,-20.23 -3.05,-22.55c2.79,-2.32 38.62,-10.08 43.33,-14.78Z" style="fill:#d9dfe8;fill-rule:nonzero;"/><path d="M986.73,462.82c-2.368,4.176 -5.317,7.994 -8.76,11.34c-24.86,23.62 -65.61,-1 -84,-14.46c26.7,-6.86 41.7,-14.71 41.7,-14.71c0,0 42.31,-3.8 49.54,10.57c1.035,2.279 1.554,4.758 1.52,7.26Z" style="fill-opacity:0.1;fill-rule:nonzero;"/><path d="M978.13,472.47c-28.26,26.84 -77,-8.7 -90.14,-19.17c-2.13,-1.7 -3.32,-2.75 -3.32,-2.75c5.19,-4.86 9.75,-15.16 13.36,-27.76c3.365,-12.055 5.795,-24.351 7.27,-36.78c2.516,-21.012 9.884,-41.154 21.52,-58.83c1.53,-2.3 3,-4.45 4.53,-6.33c10.67,-13.57 28.6,-22.19 28.6,-22.19c37.84,-11.06 42.93,45.07 41.92,46.69c-1.01,1.62 9.11,95.91 -23.74,127.12Z" style="fill:#9dc5bf;fill-rule:nonzero;"/><path d="M981.79,395.74c0,0 -24.33,59.4 -34.06,62.79c-5.57,1.93 -35.32,-1.73 -59.74,-5.22c-2.13,-1.7 -3.32,-2.75 -3.32,-2.75c5.19,-4.86 9.75,-15.16 13.36,-27.76l31.45,1.5c0,0 -1.75,-18.14 2.87,-58.82c4.62,-40.68 30.23,-30.6 30.23,-30.6c42.37,14.19 19.21,60.86 19.21,60.86Z" style="fill-opacity:0.1;fill-rule:nonzero;"/><path d="M857.52,443.33l-5.5,-0.51l-1.46,-23.25l4.83,0.44l2.13,23.32Z" style="fill-opacity:0.1;fill-rule:nonzero;"/><path d="M961.97,332.26c0,0 -25.61,-10.07 -30.23,30.6c-4.62,40.67 -2.87,58.82 -2.87,58.82l-76.73,-3.67l1.73,27.56c0,0 83.51,13.71 93.24,10.33c9.73,-3.38 34.06,-62.79 34.06,-62.79c0,0 23.13,-46.67 -19.2,-60.85Z" style="fill:#9dc5bf;fill-rule:nonzero;"/><path d="M963.69,272.04c-1.12,-6.08 5.23,-6 7.51,-11.72l-42.32,13.21c2.938,3.944 5.559,8.113 7.84,12.47c2.196,0.652 4.45,1.087 6.73,1.3c10.09,0.96 13.24,-8.97 20.24,-15.26Z" style="fill-opacity:0.1;fill-rule:nonzero;"/><path d="M909.585,245.623c1.775,-19.213 18.815,-33.37 38.028,-31.594c19.213,1.775 33.371,18.815 31.595,38.028c-1.776,19.213 -18.816,33.37 -38.029,31.595c-19.213,-1.776 -33.37,-18.816 -31.594,-38.029Z" style="fill:#f8b9bf;"/><path d="M909.9,217.26c0.43,3.64 4.27,5.86 7.84,6.68c3.57,0.82 7.44,0.86 10.57,2.77c5,3.08 6.35,9.92 5.72,15.8c-0.35,3.32 -0.85,7.39 1.87,9.32c0.854,0.523 1.808,0.864 2.8,1c2.837,0.574 5.75,0.676 8.62,0.3c1.68,-0.22 3.41,-0.6 5,-0.13c2.62,0.76 4.17,3.52 4.68,6.19c0.51,2.67 0.23,5.45 0.64,8.14c1.167,6.88 6.48,12.36 13.32,13.74c1.57,0.382 3.223,0.234 4.7,-0.42c1.9,-1 2.87,-3.13 3.69,-5.12l6,-14.36c2.7,-6.47 5.42,-13 6.86,-19.86c2.138,-10.331 1.309,-21.06 -2.39,-30.94c-1.42,-3.76 -3.38,-7.53 -6.71,-9.79c-6.67,-4.53 -16,-1.4 -23.58,-4c-2.51,-0.87 -4.77,-2.35 -7.27,-3.24c-5.41,-1.93 -11.52,-0.91 -16.73,1.52c-5.21,2.43 -9.42,6.26 -14,9.75c-3.97,3.09 -12.38,6.36 -11.63,12.65Z" style="fill-opacity:0.1;fill-rule:nonzero;"/><path d="M910.82,216.49c0.43,3.64 4.27,5.86 7.84,6.68c3.57,0.82 7.44,0.86 10.57,2.77c5,3.08 6.35,9.92 5.72,15.8c-0.35,3.32 -0.85,7.39 1.87,9.32c0.854,0.523 1.808,0.864 2.8,1c2.837,0.574 5.75,0.676 8.62,0.3c1.68,-0.22 3.41,-0.6 5,-0.13c2.62,0.76 4.17,3.52 4.68,6.19c0.51,2.67 0.23,5.45 0.64,8.14c1.167,6.88 6.48,12.36 13.32,13.74c1.57,0.382 3.223,0.234 4.7,-0.42c1.9,-1 2.87,-3.13 3.69,-5.12l6,-14.36c2.7,-6.47 5.42,-13 6.86,-19.86c2.138,-10.331 1.309,-21.06 -2.39,-30.94c-1.42,-3.76 -3.38,-7.53 -6.71,-9.79c-6.67,-4.53 -16,-1.4 -23.58,-4c-2.51,-0.87 -4.77,-2.35 -7.27,-3.24c-5.41,-1.93 -11.52,-0.91 -16.73,1.52c-5.21,2.43 -9.42,6.26 -14,9.75c-3.96,3.09 -12.37,6.36 -11.63,12.65Z" style="fill:#644242;fill-rule:nonzero;"/><path d="M939.78,354.6c0,0 -13.35,51.86 -26.64,56.66c-13.29,4.8 -7.42,6.16 -7.42,6.16" style="fill-opacity:0.1;fill-rule:nonzero;"/><rect x="925.9" y="544.58" width="14.51" height="95.37" style="fill:#d6d6e3;"/><rect x="925.9" y="544.58" width="14.51" height="7.07" style="fill-opacity:0.1;"/><path d="M896.87,544.08l0,2c0,2.573 2.117,4.69 4.69,4.69l63.18,0c2.573,0 4.69,-2.117 4.69,-4.69l0,-2c0,-2.573 -2.117,-4.69 -4.69,-4.69l-63.18,0c-2.573,0 -4.69,2.117 -4.69,4.69Z" style="fill:#d6d6e3;fill-rule:nonzero;"/><path d="M897.95,541.1l70.41,0c-0.888,-1.084 -2.219,-1.712 -3.62,-1.71l-63.18,0c-1.398,0.001 -2.724,0.629 -3.61,1.71Z" style="fill-opacity:0.1;fill-rule:nonzero;"/><path d="M992.77,640.26c0,-3.036 -2.464,-5.5 -5.5,-5.5l-108.21,0c-3.036,0 -5.5,2.464 -5.5,5.5l0,0.4c0,3.036 2.464,5.5 5.5,5.5l108.21,0c3.036,0 5.5,-2.464 5.5,-5.5l0,-0.4Z" style="fill:#d6d6e3;"/><circle cx="986.03" cy="653.42" r="7.26" style="fill:#535461;"/><circle cx="880.29" cy="653.42" r="7.26" style="fill:#535461;"/><circle cx="933.16" cy="653.42" r="7.26" style="fill:#535461;"/><path d="M1031.77,435.94c0,-4.691 -3.809,-8.5 -8.5,-8.5l-97.03,0c-4.691,0 -8.5,3.809 -8.5,8.5l0,0.62c0,4.691 3.809,8.5 8.5,8.5l97.03,0c4.691,0 8.5,-3.809 8.5,-8.5l0,-0.62Z" style="fill:#d6d6e3;"/><path d="M940.41,634.76c0,0 -5.7,5.63 -14.51,0" style="fill-opacity:0.1;fill-rule:nonzero;"/><path d="M1031.77,436.43l0,1.39c0,3.977 -3.273,7.25 -7.25,7.25l-99.53,0c-3.977,0 -7.25,-3.273 -7.25,-7.25l0,-1.39l114.03,0Z" style="fill-opacity:0.1;fill-rule:nonzero;"/><rect x="822.44" y="452.63" width="19.61" height="249.86" style="fill:#d6d6e3;"/><rect x="822.44" y="452.63" width="19.61" height="16.2" style="fill-opacity:0.1;"/><rect x="232.94" y="551.4" width="14.51" height="95.37" style="fill:#d6d6e3;"/><rect x="232.94" y="551.4" width="14.51" height="7.07" style="fill-opacity:0.1;"/><path d="M276.47,550.91l0,2c0,2.573 -2.117,4.69 -4.69,4.69l-63.18,0c-2.573,0 -4.69,-2.117 -4.69,-4.69l0,-2c0.022,-2.558 2.132,-4.65 4.69,-4.65l63.18,0c2.573,0 4.69,2.117 4.69,4.69l0,-0.04Z" style="fill:#d6d6e3;fill-rule:nonzero;"/><path d="M275.4,547.92l-70.42,0c0.898,-1.065 2.227,-1.675 3.62,-1.66l63.18,0c1.393,-0.015 2.722,0.595 3.62,1.66Z" style="fill-opacity:0.1;fill-rule:nonzero;"/><path d="M299.8,647.08c0,-3.036 -2.464,-5.5 -5.5,-5.5l-108.21,0c-3.036,0 -5.5,2.464 -5.5,5.5l0,0.4c0,3.036 2.464,5.5 5.5,5.5l108.21,0c3.036,0 5.5,-2.464 5.5,-5.5l0,-0.4Z" style="fill:#d6d6e3;"/><circle cx="187.33" cy="660.24" r="7.26" style="fill:#535461;"/><circle cx="293.06" cy="660.24" r="7.26" style="fill:#535461;"/><circle cx="240.19" cy="660.24" r="7.26" style="fill:#535461;"/><path d="M232.94,641.58c0,0 5.7,5.63 14.51,0" style="fill-opacity:0.1;fill-rule:nonzero;"/><path d="M603.11,354.48c0,0 -16.28,-29.59 -10.33,-55.31c2.563,-10.77 1.562,-22.086 -2.85,-32.24c-2.119,-4.803 -4.673,-9.402 -7.63,-13.74" style="fill:none;stroke:#535461;stroke-width:2px;"/><path d="M585.91,236.95c0.85,3.88 -3.7,16.67 -3.7,16.67c0,0 -9.49,-9.7 -10.35,-13.58c-0.205,-0.677 -0.31,-1.38 -0.31,-2.088c0,-3.944 3.246,-7.19 7.19,-7.19c3.568,0 6.623,2.655 7.12,6.188l0.05,0Z" style="fill:#9dc5bf;fill-rule:nonzero;"/><path d="M602.24,255.88c-1.39,3.72 -12.16,12 -12.16,12c0,0 -2.7,-13.3 -1.3,-17c0.961,-2.953 3.732,-4.965 6.837,-4.965c3.944,0 7.19,3.246 7.19,7.19c0,0.953 -0.189,1.896 -0.557,2.775l-0.01,0Z" style="fill:#9dc5bf;fill-rule:nonzero;"/><path d="M609.8,292.7c-3.08,2.51 -16.55,4.2 -16.55,4.2c0,0 4.39,-12.84 7.47,-15.35c1.29,-1.069 2.913,-1.654 4.588,-1.654c3.945,0 7.19,3.245 7.19,7.19c0,2.182 -0.994,4.25 -2.698,5.614Z" style="fill:#9dc5bf;fill-rule:nonzero;"/><path d="M609.25,321.84c-2.61,3 -15.6,6.94 -15.6,6.94c0,0 2.15,-13.4 4.76,-16.39c1.365,-1.664 3.407,-2.631 5.559,-2.631c3.945,0 7.19,3.246 7.19,7.19c0,1.814 -0.686,3.562 -1.919,4.891l0.01,0Z" style="fill:#9dc5bf;fill-rule:nonzero;"/><path d="M575.5,271.85c3.38,2.09 16.95,2 16.95,2c0,0 -6,-12.17 -9.38,-14.26c-1.173,-0.771 -2.546,-1.182 -3.95,-1.182c-3.945,0 -7.19,3.245 -7.19,7.19c0,2.555 1.362,4.926 3.57,6.212l0,0.04Z" style="fill:#9dc5bf;fill-rule:nonzero;"/><path d="M575.3,305.95c3.85,1 16.78,-3.12 16.78,-3.12c0,0 -9.37,-9.82 -13.22,-10.8c-0.492,-0.105 -0.993,-0.157 -1.496,-0.157c-3.944,0 -7.19,3.245 -7.19,7.19c0,3.167 2.093,5.978 5.126,6.887Z" style="fill:#9dc5bf;fill-rule:nonzero;"/><path d="M579.63,339.11c3.62,1.62 17.07,-0.24 17.07,-0.24c0,0 -7.58,-11.26 -11.2,-12.88c-0.923,-0.413 -1.924,-0.626 -2.935,-0.626c-3.945,0 -7.191,3.246 -7.191,7.191c0,2.831 1.672,5.41 4.256,6.565l0,-0.01Z" style="fill:#9dc5bf;fill-rule:nonzero;"/><path d="M585.91,236.95c0.85,3.88 -3.7,16.67 -3.7,16.67c0,0 -9.49,-9.7 -10.35,-13.58c-0.205,-0.677 -0.31,-1.38 -0.31,-2.088c0,-3.944 3.246,-7.19 7.19,-7.19c3.568,0 6.623,2.655 7.12,6.188l0.05,0Z" style="fill:#9dc5bf;fill-rule:nonzero;"/><path d="M602.24,255.88c-1.39,3.72 -12.16,12 -12.16,12c0,0 -2.7,-13.3 -1.3,-17c0.961,-2.953 3.732,-4.965 6.837,-4.965c3.944,0 7.19,3.246 7.19,7.19c0,0.953 -0.189,1.896 -0.557,2.775l-0.01,0Z" style="fill:#9dc5bf;fill-rule:nonzero;"/><path d="M609.8,292.7c-3.08,2.51 -16.55,4.2 -16.55,4.2c0,0 4.39,-12.84 7.47,-15.35c1.29,-1.069 2.913,-1.654 4.588,-1.654c3.945,0 7.19,3.245 7.19,7.19c0,2.182 -0.994,4.25 -2.698,5.614Z" style="fill:#9dc5bf;fill-rule:nonzero;"/><path d="M609.25,321.84c-2.61,3 -15.6,6.94 -15.6,6.94c0,0 2.15,-13.4 4.76,-16.39c1.365,-1.664 3.407,-2.631 5.559,-2.631c3.945,0 7.19,3.246 7.19,7.19c0,1.814 -0.686,3.562 -1.919,4.891l0.01,0Z" style="fill:#9dc5bf;fill-rule:nonzero;"/><path d="M575.5,271.85c3.38,2.09 16.95,2 16.95,2c0,0 -6,-12.17 -9.38,-14.26c-1.173,-0.771 -2.546,-1.182 -3.95,-1.182c-3.945,0 -7.19,3.245 -7.19,7.19c0,2.555 1.362,4.926 3.57,6.212l0,0.04Z" style="fill:#9dc5bf;fill-rule:nonzero;"/><path d="M575.3,305.95c3.85,1 16.78,-3.12 16.78,-3.12c0,0 -9.37,-9.82 -13.22,-10.8c-0.492,-0.105 -0.993,-0.157 -1.496,-0.157c-3.944,0 -7.19,3.245 -7.19,7.19c0,3.167 2.093,5.978 5.126,6.887Z" style="fill:#9dc5bf;fill-rule:nonzero;"/><path d="M579.63,339.11c3.62,1.62 17.07,-0.24 17.07,-0.24c0,0 -7.58,-11.26 -11.2,-12.88c-0.923,-0.413 -1.924,-0.626 -2.935,-0.626c-3.945,0 -7.191,3.246 -7.191,7.191c0,2.831 1.672,5.41 4.256,6.565l0,-0.01Z" style="fill:#9dc5bf;fill-rule:nonzero;"/><path d="M596.49,436.55c-0.001,0 -0.003,0 -0.004,0c-9.403,0 -17.14,-7.737 -17.14,-17.14c0,-0.36 0.011,-0.72 0.034,-1.08l4.79,-75.9l24.64,0l4.79,75.9c0.023,0.36 0.034,0.72 0.034,1.08c0,9.403 -7.737,17.14 -17.14,17.14c-0.001,0 -0.003,0 -0.004,0Z" style="fill:#9dc5bf;fill-rule:nonzero;"/><rect x="83.6" y="63.42" width="14" height="58" style="fill:#9dc5bf;fill-opacity:0.1;"/><rect x="101.6" y="63.42" width="14" height="58" style="fill:#9dc5bf;fill-opacity:0.1;"/><rect x="119.6" y="63.42" width="14" height="58" style="fill:#9dc5bf;fill-opacity:0.1;"/><rect x="137.6" y="63.42" width="14" height="58" style="fill:#9dc5bf;fill-opacity:0.1;"/><rect x="173.6" y="63.42" width="14" height="58" style="fill:#9dc5bf;fill-opacity:0.1;"/><rect x="191.6" y="63.42" width="14" height="58" style="fill:#9dc5bf;fill-opacity:0.1;"/><rect x="83.6" y="74.42" width="14" height="3" style="fill:#9dc5bf;fill-opacity:0.1;"/><rect x="83.6" y="110.42" width="14" height="3" style="fill:#9dc5bf;fill-opacity:0.1;"/><rect x="101.6" y="74.42" width="14" height="3" style="fill:#9dc5bf;fill-opacity:0.1;"/><rect x="101.6" y="110.42" width="14" height="3" style="fill:#9dc5bf;fill-opacity:0.1;"/><rect x="119.6" y="74.42" width="14" height="3" style="fill:#9dc5bf;fill-opacity:0.1;"/><rect x="119.6" y="110.42" width="14" height="3" style="fill:#9dc5bf;fill-opacity:0.1;"/><rect x="137.6" y="74.42" width="14" height="3" style="fill:#9dc5bf;fill-opacity:0.1;"/><rect x="137.6" y="110.42" width="14" height="3" style="fill:#9dc5bf;fill-opacity:0.1;"/><rect x="155.6" y="74.42" width="14" height="3" style="fill:#9dc5bf;fill-opacity:0.1;"/><rect x="155.6" y="110.42" width="14" height="3" style="fill:#9dc5bf;fill-opacity:0.1;"/><rect x="173.6" y="74.42" width="14" height="3" style="fill:#9dc5bf;fill-opacity:0.1;"/><rect x="173.6" y="110.42" width="14" height="3" style="fill:#9dc5bf;fill-opacity:0.1;"/><rect x="191.6" y="74.42" width="14" height="3" style="fill:#9dc5bf;fill-opacity:0.1;"/><rect x="191.6" y="110.42" width="14" height="3" style="fill:#9dc5bf;fill-opacity:0.1;"/><rect x="155.6" y="63.42" width="14" height="58" style="fill:#9dc5bf;fill-opacity:0.1;"/><path d="M218.766,63.154l-12.705,5.881l24.365,52.634l12.705,-5.881l-24.365,-52.634Z" style="fill:#9dc5bf;fill-opacity:0.1;"/><path d="M223.391,73.146l-12.705,5.881l1.26,2.722l12.705,-5.881l-1.26,-2.722Z" style="fill:#9dc5bf;fill-opacity:0.1;"/><path d="M238.506,105.812l-12.705,5.881l1.26,2.722l12.705,-5.881l-1.26,-2.722Z" style="fill:#9dc5bf;fill-opacity:0.1;"/><path d="M389.14,661.47l-25.41,-16.21c-0.13,-22.83 -0.49,-128.82 4.26,-143c1.225,-4.105 1.294,-8.469 0.2,-12.61c-3.3,-14.41 -15.34,-25.17 -29.93,-27.54c-13.76,-2.24 -33.56,-5.91 -49.5,-10.65c14.21,-1.47 24.86,-2.74 24.86,-2.74l0.28,-2.63l9.15,-0.44l0,-0.39l0.87,-0.05c21.37,-1.27 66.75,-5.5 51.33,-18.16c-5.29,-4.34 -12.19,-6.39 -19.47,-7.08c22.26,-5.08 57.05,-14.92 41.54,-24.17c-14.74,-8.78 -37.31,-1.88 -50.78,3.73l-0.83,0.35l-0.15,-1.21l-5.38,1.08l-1.71,0.34l-0.08,-1.76l-75.49,11.66c-0.592,-8.65 -1.62,-17.264 -3.08,-25.81c1.69,-11.26 9.55,-27.68 6.78,-36.49c-3.22,-10.23 -16.44,-13.58 -22,-22.82c-1.46,-2.41 -2.91,-4.67 -4.33,-6.65c-3.108,-4.223 -6.68,-8.084 -10.65,-11.51c0.24,-5.941 1.569,-11.788 3.92,-17.25c1.507,-3.654 3.272,-7.196 5.28,-10.6c18.161,-4.505 29.829,-22.598 26.44,-41c4.78,2.05 10.59,2.26 13.58,-1.74l-1.42,-0.55c0.14,-0.15 0.28,-0.3 0.4,-0.47c-2.91,-1.11 -6,-2.37 -8.28,-4.39c-0.577,-0.649 -1.065,-1.372 -1.45,-2.15c-1.38,-2.8 -1.22,-6.16 -2.54,-9c-0.621,-1.293 -1.503,-2.444 -2.59,-3.38c-2.316,-2.368 -5.246,-4.044 -8.46,-4.84c-3.61,-1.05 -7.41,-1.58 -10.87,-3c-9.622,-11.172 -25.075,-15.519 -39.11,-11l-1.25,0.43c0.226,-1.09 0.34,-2.199 0.34,-3.312c0,-8.948 -7.363,-16.31 -16.31,-16.31c-7.485,0 -14.056,5.153 -15.84,12.422c0.317,-3.644 1.853,-7.076 4.36,-9.74c-0.26,0.22 -0.53,0.43 -0.78,0.66c-3.279,3.083 -5.141,7.389 -5.141,11.89c0,4.153 1.586,8.154 4.431,11.18l0.29,0.28c1.155,1.413 2.537,2.623 4.09,3.58c-5.82,-2.056 -9.997,-7.245 -10.76,-13.37c0,0.34 0,0.68 0,1c0.498,8.582 7.696,15.374 16.293,15.374c0.352,0 0.705,-0.011 1.057,-0.034l0.45,-0.05l-0.24,0.33c-9.542,14.033 -8.169,32.942 3.3,45.45c0.664,1.52 1.546,2.935 2.62,4.2c0.377,0.432 0.781,0.839 1.21,1.22c2.738,2.889 6.485,4.615 10.46,4.82c0.667,0.793 1.377,1.557 2.13,2.29c-0.659,2.806 -1.522,5.559 -2.58,8.24c-2.131,5.338 -4.784,10.453 -7.92,15.27c-21.6,6.14 -23.5,42.82 -22.72,44.21c0.93,1.66 -3.22,59.26 12.78,128.84c-0.66,19.89 10.94,52.78 52.12,44.11c51.5,2.75 68.39,10.64 68.39,10.64c0,0 -4.89,89.57 2.09,102.61c4.37,8.17 1.27,20.17 -2,28.64c-1.212,2.095 -2.179,4.323 -2.88,6.64c-1,2.11 -1.73,3.39 -1.73,3.39l0.7,0c-2.64,9.17 -4.51,20.24 -4.51,20.24c0,0 62.43,12.67 89.89,4.38c10.66,-3.22 11.1,-6.2 7.64,-8.66c2.549,-0.375 5.068,-0.926 7.54,-1.65c27.48,-8.29 -12.9,-15.08 -12.9,-15.08Z" style="fill:url(#_Linear2);fill-rule:nonzero;"/><path d="M253.3,236.26c0,19.749 -16.251,36 -36,36c-19.749,0 -36,-16.251 -36,-36c0,-19.749 16.251,-36 36,-36c19.749,0 36,16.251 36,36Z" style="fill:#b96b6b;fill-rule:nonzero;"/><path d="M334.39,405.39l3.65,18.22c0,0 4.06,-0.73 10.07,-2c20.53,-4.35 63.91,-15.09 47.11,-25.11c-14.45,-8.61 -36.58,-1.84 -49.78,3.66c-4.84,2 -8.48,3.86 -10.11,4.73c-0.61,0.31 -0.94,0.5 -0.94,0.5Z" style="fill:#f8b9bf;fill-rule:nonzero;"/><path d="M335.42,410.53l2.62,13.08c0,0 4.06,-0.73 10.07,-2l-2.67,-21.45c-4.84,2 -8.48,3.86 -10.11,4.73l0.09,5.64Z" style="fill-opacity:0.1;fill-rule:nonzero;"/><path d="M334.79,424.74l12.54,-2.51l-2.84,-22.91l-10.04,2.01l0.34,23.41Z" style="fill:#d9dfe8;fill-rule:nonzero;"/><path d="M334.79,424.74l5.41,-1.09l-0.99,-23.27l-4.76,0.95l0.34,23.41Z" style="fill-opacity:0.1;fill-rule:nonzero;"/><path d="M219.21,325.26c0,0 24.41,-12.72 33.28,27.25c8.87,39.97 9,58.19 9,58.19l75.92,-11.73l1.18,27.59c0,0 -81.6,22.43 -91.63,20.09c-10.03,-2.34 -40.48,-58.85 -40.48,-58.85c0,0 -27.9,-43.95 12.73,-62.54Z" style="fill:#9dc5bf;fill-rule:nonzero;"/><g><g opacity="0.1"><path d="M334.39,405.39l3.65,18.22c0,0 4.06,-0.73 10.07,-2c20.53,-4.35 63.91,-15.09 47.11,-25.11c-14.45,-8.61 -36.58,-1.84 -49.78,3.66c-4.84,2 -8.48,3.86 -10.11,4.73c-0.61,0.31 -0.94,0.5 -0.94,0.5Z" style="fill-rule:nonzero;"/><path d="M335.42,410.53l2.62,13.08c0,0 4.06,-0.73 10.07,-2l-2.67,-21.45c-4.84,2 -8.48,3.86 -10.11,4.73l0.09,5.64Z" style="fill-opacity:0.1;fill-rule:nonzero;"/><path d="M334.79,424.74l12.54,-2.51l-2.84,-22.91l-10.04,2.01l0.34,23.41Z" style="fill-rule:nonzero;"/><path d="M334.79,424.74l5.41,-1.09l-0.99,-23.27l-4.76,0.95l0.34,23.41Z" style="fill-opacity:0.1;fill-rule:nonzero;"/><path d="M221.21,327.26c0,0 24.41,-12.72 33.28,27.25c8.87,39.97 9,58.19 9,58.19l75.92,-11.73l1.18,27.59c0,0 -81.6,22.43 -91.63,20.09c-10.03,-2.34 -40.48,-58.85 -40.48,-58.85c0,0 -27.9,-43.95 12.73,-62.54Z" style="fill-rule:nonzero;"/></g></g><path d="M357.3,637.97l29.94,19c0,0 39.59,6.63 12.66,14.76c-26.93,8.13 -88.13,-4.3 -88.13,-4.3c0,0 4.65,-27.54 9.6,-31.19c4.95,-3.65 35.93,1.73 35.93,1.73Z" style="fill:#f37291;fill-rule:nonzero;"/><path d="M246.3,434.16c0,0 14.93,8.67 41.78,16.77c15.74,4.75 35.54,8.42 49.22,10.65c14.324,2.211 25.954,12.91 29.35,27c1.074,4.059 1.008,8.336 -0.19,12.36c-5.22,15.62 -4.16,144.47 -4.16,144.47l-46.84,2.25c0,0 7.41,-23.41 -1.72,-35.77c-9.13,-12.36 6.16,-102.73 6.16,-102.73c0,0 -16.59,-7.74 -67.09,-10.43c-47.33,10 -64.34,-42.15 -56.48,-56.19c7.86,-14.04 49.97,-8.38 49.97,-8.38Z" style="fill:#96a2d0;fill-rule:nonzero;"/><g><g opacity="0.1"><path d="M357.3,637.97l29.94,19c0,0 39.59,6.63 12.66,14.76c-26.93,8.13 -88.13,-4.3 -88.13,-4.3c0,0 4.65,-27.54 9.6,-31.19c4.95,-3.65 35.93,1.73 35.93,1.73Z" style="fill-rule:nonzero;"/><path d="M246.3,434.16c0,0 14.93,8.67 41.78,16.77c15.74,4.75 35.54,8.42 49.22,10.65c14.324,2.211 25.954,12.91 29.35,27c1.074,4.059 1.008,8.336 -0.19,12.36c-5.22,15.62 -4.16,144.47 -4.16,144.47l-46.84,2.25c0,0 7.41,-23.41 -1.72,-35.77c-9.13,-12.36 6.16,-102.73 6.16,-102.73c0,0 -16.59,-7.74 -67.09,-10.43c-47.33,10 -64.34,-42.15 -56.48,-56.19c7.86,-14.04 49.97,-8.38 49.97,-8.38Z" style="fill-rule:nonzero;"/></g></g><path d="M342.38,648.08l29.94,19c0,0 39.59,6.63 12.66,14.76c-26.93,8.13 -88.13,-4.3 -88.13,-4.3c0,0 4.65,-27.54 9.6,-31.19c4.95,-3.65 35.93,1.73 35.93,1.73Z" style="fill:#f37291;fill-rule:nonzero;"/><path d="M237.94,508.83c50.5,2.69 67.09,10.43 67.09,10.43c0,0 -4.79,87.82 2,100.6c7.25,13.56 -6.48,37.9 -6.48,37.9l46.84,-2.25c0,0 0,-1.52 0,-4.24c-0.14,-22.38 -0.48,-126.3 4.17,-140.23c1.198,-4.024 1.264,-8.301 0.19,-12.36c-3.399,-14.089 -15.027,-24.786 -29.35,-27c-13.69,-2.22 -33.48,-5.89 -49.22,-10.64l-0.77,-0.24c-26.37,-8 -41,-16.53 -41,-16.53c0,0 -31.19,-2.16 -39,11.88c-1,1.82 -5.31,5.4 -5.49,8.29c-1.17,19.34 9.84,53.06 51.02,44.39Z" style="fill:#96a2d0;fill-rule:nonzero;"/><path d="M312.11,426.86l0.89,18.56c0,0 4.12,-0.11 10.26,-0.48c20.95,-1.25 65.45,-5.39 50.33,-17.8c-13,-10.67 -35.9,-7.27 -49.77,-3.8c-5.09,1.28 -9,2.56 -10.7,3.17c-0.66,0.22 -1.01,0.35 -1.01,0.35Z" style="fill:#f8b9bf;fill-rule:nonzero;"/><path d="M193.3,300.55c0,0 6,5.17 13.44,10.89c8.3,2.26 18,4.27 24.93,5.6c-2.15,-8.15 -0.24,-17 2.93,-24.79c3.44,-8.103 8.005,-15.681 13.56,-22.51l-41.7,-15.07c2.95,8.55 1,18.1 -2.17,26.27c-2.798,6.985 -6.493,13.577 -10.99,19.61Z" style="fill:#f8b9bf;fill-rule:nonzero;"/><path d="M312.36,432.09l0.64,13.33c0,0 4.12,-0.11 10.26,-0.48l0.56,-21.61c-5.09,1.28 -9,2.56 -10.7,3.17l-0.76,5.59Z" style="fill-opacity:0.1;fill-rule:nonzero;"/><path d="M309.62,446.05l12.77,-0.61l0.6,-23.08l-10.22,0.49l-3.15,23.2Z" style="fill:#d9dfe8;fill-rule:nonzero;"/><path d="M187.83,469.84c27,28.07 77.35,-5.29 90.89,-15.17c2.2,-1.61 3.43,-2.6 3.43,-2.6c-5,-5.09 -13,-9.8 -16.07,-22.55c-2.929,-13.013 -4.914,-26.221 -5.94,-39.52c-0.83,-10.55 10.07,-30.64 6.92,-40.66c-3.15,-10.02 -16.12,-13.31 -21.57,-22.38c-1.43,-2.36 -2.85,-4.58 -4.25,-6.52c-10.06,-14 -27.59,-23.43 -27.59,-23.43c-37.35,-12.75 -40.28,40.59 -39.35,42.25c0.93,1.66 -3.34,60.46 13.53,130.58Z" style="fill:#9dc5bf;fill-rule:nonzero;"/><path d="M187.55,393.02c0,0 21.69,60.42 31.26,64.23c5.48,2.18 35.37,-0.17 59.91,-2.58c2.2,-1.61 3.43,-2.6 3.43,-2.6c-5,-5.09 -9.07,-15.58 -12.13,-28.32l-31.49,0.11c0,0 2.55,-18 -0.27,-58.89c-2.82,-40.89 -28.85,-31.9 -28.85,-31.9c-42.93,12.31 -21.86,59.95 -21.86,59.95Z" style="fill-opacity:0.1;fill-rule:nonzero;"/><path d="M309.62,446.05l5.51,-0.26l2.49,-23.17l-4.85,0.23l-3.15,23.2Z" style="fill-opacity:0.1;fill-rule:nonzero;"/><path d="M210.15,330.47c0,0 26,-8.93 28.85,31.9c2.85,40.83 0.3,58.89 0.3,58.89l76.82,-0.28l-2.95,27.46c0,0 -84,10 -93.6,6.21c-9.6,-3.79 -31.27,-64.22 -31.27,-64.22c0,0 -21.09,-47.65 21.85,-59.96Z" style="fill:#9dc5bf;fill-rule:nonzero;"/><path d="M211.1,270.26c1.39,-6 -5,-6.19 -7,-12l41.72,15c-3.108,3.81 -5.91,7.859 -8.38,12.11c-2.222,0.554 -4.493,0.889 -6.78,1c-10.14,0.5 -12.85,-9.53 -19.56,-16.11Z" style="fill-opacity:0.1;fill-rule:nonzero;"/><path d="M229.685,213.028c19.273,-0.926 35.671,13.969 36.597,33.242c0.926,19.273 -13.97,35.671 -33.243,36.597c-19.272,0.926 -35.671,-13.969 -36.597,-33.242c-0.925,-19.273 13.97,-35.672 33.243,-36.597Z" style="fill:#f8b9bf;"/><path d="M213.3,356.4c0,0 11.06,52.39 24.12,57.74c13.06,5.35 7.14,6.49 7.14,6.49" style="fill-opacity:0.1;fill-rule:nonzero;"/><path d="M258.88,385.99c0,0 -9.24,2.89 -20,-10.92" style="fill-opacity:0.1;fill-rule:nonzero;"/><circle cx="189.3" cy="199.26" r="16" style="fill:#b96b6b;"/><path d="M178.06,207.71c-5.74,-6.12 -5.74,-15.77 0,-21.89c-0.26,0.21 -0.52,0.42 -0.76,0.65c-3.216,3.023 -5.042,7.246 -5.042,11.66c0,8.779 7.223,16.002 16.002,16.002c4.071,0 7.993,-1.553 10.96,-4.342c0.25,-0.23 0.47,-0.48 0.69,-0.72c-6.466,5.35 -16.098,4.75 -21.85,-1.36Z" style="fill:#b96b6b;fill-rule:nonzero;"/><path d="M187.2,213.75c-8.381,0.505 -15.806,-5.668 -16.84,-14c0,0.33 0,0.66 0,1c0.525,8.385 7.569,15.001 15.97,15.001c8.778,0 16.001,-7.223 16.001,-16.001c0,-0.334 -0.01,-0.667 -0.031,-1c0,-0.34 -0.07,-0.66 -0.11,-1c0.017,8.409 -6.598,15.469 -14.99,16Z" style="fill:#b96b6b;fill-rule:nonzero;"/><path d="M244.25,213.17c3.73,1.84 8,2.35 12,3.51c4,1.16 8.08,3.28 9.84,7.06c1.29,2.78 1.14,6.07 2.49,8.82c1.94,4 6.42,5.84 10.54,7.41c-3.54,4.75 -11.14,3.46 -16.1,0.23c-4.96,-3.23 -9.23,-8 -15,-9.25c-5.819,-1.148 -11.767,1.499 -14.81,6.59c-1.58,2.77 -2.14,6 -2.92,9.08c-2,8.12 -6,16.2 -13,20.81c-7,4.61 -17.43,4.58 -22.92,-1.73c-3.2,-3.68 -4.27,-8.69 -5.22,-13.47c-0.541,-2.229 -0.8,-4.517 -0.77,-6.81c0.32,-5.74 4.14,-10.63 8,-14.89c4.55,-5 9.39,-9.8 14.23,-14.57c4.18,-4.12 9,-11.1 15.3,-11.59c7.26,-0.58 12.39,5.89 18.34,8.8Z" style="fill-opacity:0.1;fill-rule:nonzero;"/><path d="M243.25,212.17c3.73,1.84 8,2.35 12,3.51c4,1.16 8.08,3.28 9.84,7.06c1.29,2.78 1.14,6.07 2.49,8.82c1.94,4 6.42,5.84 10.54,7.41c-3.54,4.75 -11.14,3.46 -16.1,0.23c-4.96,-3.23 -9.23,-8 -15,-9.25c-5.819,-1.148 -11.767,1.499 -14.81,6.59c-1.58,2.77 -2.14,6 -2.92,9.08c-2,8.12 -6,16.2 -13,20.81c-7,4.61 -17.43,4.58 -22.92,-1.73c-3.2,-3.68 -4.27,-8.69 -5.22,-13.47c-0.541,-2.229 -0.8,-4.517 -0.77,-6.81c0.32,-5.74 4.14,-10.63 8,-14.89c4.55,-5 9.39,-9.8 14.23,-14.57c4.18,-4.12 9,-11.1 15.3,-11.59c7.26,-0.58 12.39,5.89 18.34,8.8Z" style="fill:#b96b6b;fill-rule:nonzero;"/><path d="M255.61,442.76c0,-4.691 -3.809,-8.5 -8.5,-8.5l-97.03,0c-4.691,0 -8.5,3.809 -8.5,8.5l0,0.62c0,4.691 3.809,8.5 8.5,8.5l97.03,0c4.691,0 8.5,-3.809 8.5,-8.5l0,-0.62Z" style="fill:#d6d6e3;"/><path d="M141.58,443.26l0,1.39c0,3.977 3.273,7.25 7.25,7.25l99.53,0c3.977,0 7.25,-3.273 7.25,-7.25l0,-1.39l-114.03,0Z" style="fill-opacity:0.1;fill-rule:nonzero;"/><rect x="342.39" y="452.63" width="19.61" height="249.83" style="fill:#d6d6e3;"/><rect x="342.39" y="452.63" width="19.61" height="16.2" style="fill-opacity:0.1;"/><rect x="333.01" y="434.72" width="518.42" height="32.4" style="fill:#d6d6e3;"/><defs><linearGradient id="_Linear1" x1="0" y1="0" x2="1" y2="0" gradientUnits="userSpaceOnUse" gradientTransform="matrix(46.3329,-514.81,514.81,46.3329,864.095,693.986)"><stop offset="0" style="stop-color:#808080;stop-opacity:0.247059"/><stop offset="0.54" style="stop-color:#808080;stop-opacity:0.117647"/><stop offset="1" style="stop-color:#808080;stop-opacity:0.0980392"/></linearGradient><linearGradient id="_Linear2" x1="0" y1="0" x2="1" y2="0" gradientUnits="userSpaceOnUse" gradientTransform="matrix(3.1313e-14,-511.38,511.38,3.1313e-14,289.8,689.64)"><stop offset="0" style="stop-color:#808080;stop-opacity:0.247059"/><stop offset="0.54" style="stop-color:#808080;stop-opacity:0.117647"/><stop offset="1" style="stop-color:#808080;stop-opacity:0.0980392"/></linearGradient></defs></svg>