<?xml version="1.0" encoding="UTF-8" standalone="no"?>
<!DOCTYPE svg PUBLIC "-//W3C//DTD SVG 1.1//EN" "http://www.w3.org/Graphics/SVG/1.1/DTD/svg11.dtd">
<svg width="100%" height="100%" viewBox="0 0 918 54" version="1.1" xmlns="http://www.w3.org/2000/svg" xmlns:xlink="http://www.w3.org/1999/xlink" xml:space="preserve" xmlns:serif="http://www.serif.com/" style="fill-rule:evenodd;clip-rule:evenodd;stroke-linejoin:round;stroke-miterlimit:1.41421;">
    <g transform="matrix(1.01744,0,0,0.249296,-13.6965,-83.9343)">
        <path d="M922.971,336.685L5.599,336.685L5.599,482.53C5.599,482.53 10.1,485.64 13.47,489.76C34.58,515.55 73.28,518.16 105.99,511.76C138.7,505.36 170.69,492.09 203.99,493.76C235.99,495.41 265.43,510.76 294.75,523.68C344.18,545.52 401.91,561.19 451.3,539.24C473.93,529.18 492.64,512.05 514.3,500.09C543.485,484.123 577.048,477.965 610,482.53C632,485.63 653,493.43 674.53,498.81C723.43,511.02 774.47,510.62 824.86,510.14C834.24,510.05 843.77,509.94 852.76,507.26C866.07,503.26 877.05,494.05 887.62,485.04C901.51,473.21 922.971,443.252 922.971,443.252L922.971,336.685Z" style="fill:rgb(157,197,191);fill-rule:nonzero;"/>
    </g>
</svg>
